<svg xmlns="http://www.w3.org/2000/svg" viewBox="0 0 640 480"><circle fill="#B0B7B3" cx="324.3" cy="238.5" r="234.7"/><path fill="#E6B9AD" d="M333.1 84.4c21.3 10.2-13 98.7-4 187.3.7 7.1 1.7 14 2 25.3.9 32.2-5.1 44.7-5.4 82.5 0 .1.2 6.9.2 20.4 0 10.4 5 42.6-2.3 48.4-19.9 15.8-61.6-20.1-73.3-32.2-11.6-11.9-38.7-33-48.6-69.3-3.4-12.3-7.2-34.5-6.6-58.5.2-9.2 1.1-17.6-.7-30.7-2.4-18.5-6.7-21.4-8.7-34-.8-5-1.2-11.5 13.3-60 9.3-30.9 12.1-37 17.7-44.1 1.7-2.2 10.4-12.9 25.9-21 16.9-8.8 24.1-5.3 78.5-13.3 10.1-1.3 10.6-1.5 12-.8z"/><path fill="#FFF" d="M242.9 292.2l-21.6-4c-4.1-3.1-8.3-6.1-12.4-9.2l-12.3-15.1-2-14-7-12.8-7.2-3-1.1-8.5 5.3-8.3 25.7-7.1 40.9-6 48 6 25 1-2.1 16.7-5.1 5-3 14.9-7.2 17.1-12.4 18.2-17.6 8.1-33.9 1zm-21.1-4.9l21.2 4 33.5-1 17.1-7.9 12.1-17.9 7.1-16.9 3.1-15.1 5.1-5 1.9-15.3-23.9-1-47.9-6-40.7 6-25.2 6.9-4.9 7.7 1 7.5 7 3 7.3 13.3 2 13.9 12.1 14.8 12.1 9z"/><path fill="none" d="M242.9 292.2l-21.6-4c-4.1-3.1-8.3-6.1-12.4-9.2l-12.3-15.1-2-14-7-12.8-7.2-3-1.1-8.5 5.3-8.3 25.7-7.1 40.9-6 48 6 25 1-2.1 16.7-5.1 5-3 14.9-7.2 17.1-12.4 18.2-17.6 8.1-33.9 1zm-21.1-4.9l21.2 4 33.5-1 17.1-7.9 12.1-17.9 7.1-16.9 3.1-15.1 5.1-5 1.9-15.3-23.9-1-47.9-6-40.7 6-25.2 6.9-4.9 7.7 1 7.5 7 3 7.3 13.3 2 13.9 12.1 14.8 12.1 9z"/><g fill="#202020"><path d="M222.2 292.3c1.1.5 3.1.8 5 1.2-1.4-.5-2.9-.9-5-1.2zM227.2 293.5zM224 281.9c-.4-.3-.8-.6-1.3-.9.4.3.8.6 1.3.9z"/><path d="M312.4 263.4l-.3-.4c1.7-4.2.9-1 2.5-4.9.1-.9.7-2.5 1.5-4 .4-.8.7-1.6 1-2.2.1-.3.3-.6.4-.9 0-.1.1-.3.1-.4v-.4s.2-.4.4-.9c.1-.3.1-.6.2-.9l.1-.2v-.1c0-.1 0-.1.1-.2.1-.3.2-.5.2-.4-.2-.7.4-2.1.5-3.4 0-.5-.2.3-.3.6l.5-2.9c.3-1.1.6-1.4.3-.1.2-.8.4-1.8.7-3.2.1-.7.3-1.4.5-2.2 0-.2.1-.4.1-.6V235.4h.1c.4-.3.7-.7 1.1-1.1 1.3-1.3 2.7-2.6 4.1-4 1-7.4 2.1-15.7 3.1-23.7-7.2-.3-14.2-.6-20-.9-4-.2-7.2-.3-9-.3 1.1.3 3.6.2 4.6.6-2.2.1-3.2-.2-4.2 0-.1-.1-.4-.2-.6-.2-.1 0-.3-.1-.5-.1h-.3c-.1 0 0 0 0 0h-.4c-.2 0-.4-.1-.6-.1-.4-.1-.9-.1-1.3-.2-.9-.1-1.7-.3-2.2-.6l-.7.2-1.1-.3c-9.7-.9-2.2-.1-10.8-1.3-4.9-.6-7.4-.4-10.1-.9.4.1 1.5.4.2.3-.2-.3-3.4-.2-4-.6-1.3-.1-5.3-.7-4-.1-.7-.3-4.3-.8-2.1-.7-1.2-.2-2.4-.4-3.3-.4l1.6.3c-2-.2-3.6-.5-5-.7-.7-.1-1.3-.2-2-.2-.3 0-.6-.1-1-.1-.5 0-1.1-.1-1.7-.1-.1 0-.2 0-.3.1h.3l1.3.2c.2 0 .3.1.4.1l.3.1c-.7-.1-1.4-.2-2-.2-.7.1-1.4.2-2 .3-.4.1-.8.1-1.2.1-.7.1-1.3.1-1.7 0l2.5-.5c-4.1.6-6.5 1-9.9 1.7l1.2-.2c-2 .5-8.3 1.6-14.7 2.7-3.2.6-6.4 1.1-9.2 1.6-1.4.3-2.6.5-3.7.7-1.2.2-2.2.4-2.9.6-.2.1-.4.1-.6.2-.1 0-.2.1-.3.1h.4l.6-.1c.8-.1 1 0 1.4 0-.4.1-.6.1-1.4.3-.7.2-.9.3-1.3.4l-1.1.4c.2-.1.5-.4.9-.7.2-.2.3-.3.5-.4.2-.1.2-.2.4-.2-3.7 1-15.1 4.2-26.6 7.4-2.2 3.5-4.5 7-6.6 10.4.5 4.1 1 8 1.5 11.5 2.2.9 4.3 1.8 6.1 2.6.5.2.9.4 1.3.6.2.1.3.1.4.2.3.5.5.9.6 1.2 1.2 2.5-.2.7-.2.6 1.7 2.9 1 1.1 2.3 3.7.3.7-.3 0-.5-.4.6 1.1 1.1 2.2 1.3 2.2-.7-1.4 0-1-.2-1.7l1.7 3.3h-.3c.2.3.4.6.8 1 .2.2.4.5.6.8.1.1.1.2.2.3l.1.1.2.2c0 .1.1.2.1.3 0 .3.1.6.1 1 .3 1.9.5 3.9.8 5.9.3 2.3.7 4.7 1 7 1.7 2.1 3.4 4.2 5 6.2-.2 0-1-.9-1.9-1.9.5.6 1.3 1.6 1.7 2.2-.8-1.3 1.8 1.9 1.1.9 1.2 1.1 2.4 2.5 3.5 3.9 1.3 1.5 2.5 3.1 3.7 4.5.4.3.8.6 1.2.8.3.2.5.4.8.5.5.3 1 .7 1.5.9.6-.2 11.8-1.7 12.2-2.2 1 .7 2 1.5 2.2 1.7-.2-.3-2.1-1.8-3.2-2.5l-.4.1c-2.5-1.7-.5-.6-2.8-2.3 0-.3 2.2 1.2 4.1 2.6-1.7-1.3-3.3-2.7-4.1-3-1.5-1.3.4-.1-1.5-1.6-.6-.4-1.2-.8-1.9-1.2-.5-.3-1-.6-1.5-1 0 0 .1.1-.2-.3h.1c-2.8-3.9-4.9-5.4-7.4-8.9l.4.3c-.4-.6-1.1-1.4-1.9-2.4l-1.2-1.5c-.3-.4-.2-.2-.2-.3-.1 0-.1.1-.2.1v-.1c0-.4-.1-.7-.1-1.1-.1-.7-.2-1.3-.3-1.9-.2-1.2-.3-2.3-.4-3.5l-.6-2.2c-.1-1-.3-2.3-.6-4.4-1.9-3.5-5.1-9.3-8.7-15.9-1.6-.7-3.4-1.4-5.2-2.2l-.4-.2h-.2l-.2-.1v-.2c0-.1 0 .1-.1-.4l-.2-1.7v-.2l.1-.1.2-.2c.4-.7.8-1.3 1.2-2 .4-.6.7-1.2 1.1-1.7l.1-.2c9.9-2.8 16.9-4.7 20.3-5.7l-.4.2c.9-.2 1.8-.5 3-.8 10.2-1.5 25.7-3.9 39.6-6 4.5.5 8.9 1 12.8 1.5 4.2.5 8 .9 11.2 1.2 2.7.6 6.4 1 9.2 1.4-1.6-.3-1-.4.2-.2 8.6 1.1.6-.1 9.3.9 1.2.1 2.8.3 4.7.5 3 .1 6.8.3 11 .4 2.1.1 4.2.2 6.4.3.6 0 1.2.1 1.7.1 0 .3-.1.7-.1 1l-.1.5c-.1.5-.1 1-.2 1.5-.2 1.3-.3 2.6-.5 3.8-.1.5-.1 1.1-.2 1.6 0 .1 0 .3-.1.4l-.3.3-1.2 1.2c-1.2 1.2-2.4 2.3-3.4 3.3-.4 1.9-.8 3.6-1.1 5.1-.2 1.1-.4 1.9-.6 2.6-.2 1.4-.4 2.8-.7 4.3-.3 1.3-.5 2.7-.8 4-.4.9-.8 1.8-1.1 2.7-.4 1-.8 2-1.1 3l.1-.5c-.3.8-.9 2.4-1.8 4.3-.8 1.8-1.7 4.1-2.8 6.6-3.7 5.4-8.3 12-11.2 16.4-1.8.8-3.1 1.5-3.9 1.8l.7-.3c-4.5 2.3-4.1 1.7-7.8 3.3.3.1-.5.6-1.6 1.2-.5.3-1.1.6-1.7.9-.1.1-.3.1-.4.2l-.1.1c-.1 0-.1.1-.2.1v-.1h-.3c-.4 0-.8.1-1.2.1-.9.1-2 .2-3.1.2-2.2.2-4.7.3-6.7.4l.2-.2c-3.5.3-10 .4-12.5.5h-8.5l-.2-.1-.8-.2c-.5-.1-1.1-.2-1.6-.3l-3.3-.6c-2.2-.4-4.4-.8-6.5-1.1l-4.7-1.5-.7-.1s-9.2 6 .4 9.5l-.2.2 2 .3c2.3.5 3.5.5 3.3.7l-3.2-.6c2.3.5.7.3-.2.3 1 .2 1.9.4 2.7.6.5 0-.3-.2-.7-.3 1.3.2 3.1.3 4.6.7 2.4.5.1.4 2.9.9 1.9.4 3.9.8 5.8 1.1l17.3-.3c2.8-.1 5.6-.1 8.4-.2 3.2-.1 6.4-.2 9.6-.2 2.2-1 4.5-2.1 6.8-3.1.4-.1 0 .1-.4.3 4.6-2.2 8.7-4.1 12.9-6.1.1 0 .2-.1.3-.1 1.2-1.6 1.7-2 2.1-2.5-.2.2 1.6-2.6 4-6.1 2.5-3.7 5.5-8.1 7.4-11 .5-1.2.9-2.2 1.2-2.9.2-.6.3-1 .3-1z"/></g><g fill="#202020"><path d="M242.4 287.2c-1.1-.5-3.1-.9-5.1-1.3 1.5.6 3 1 5.1 1.3zM237.3 286zM244.5 297.9c.5 0 1 0 1.6-.1-.5 0-1.1 0-1.6.1z"/><path d="M185.3 227h-.4v-.1c.1-.1.1-.1.2-.1h.2c.2-.2.5-.4 1.5-2.2.1-.5.5-1.2.9-1.9.1-.2.2-.3.3-.5 0 0 .1 0 .1-.1h.2c.2-.1.5-.1.6-.2.2-.1.4-.2.6-.2 0 .1 2-.5 1.9-.3.5-.5 2.1-.6 3.3-1.1.4-.2-.4 0-.7 0l2.9-.9c1.2-.2 1.5-.1.3.3 2.4-.6 7.7-2 14.3-3.8 6.9-1 15-2.1 22.2-3.1 7.2-1 13.4-2 16.3-2.4-1.1-.1-3.7.5-4.7.3 2.2-.5 3.3-.4 4.2-.8.2.1.6.1 1 .1.2 0 .5 0 .7-.1h.4c.4.1.7.1 1.1.2.7.1 1.4.3 1.8.5l.7-.2 1.1.3c9.9.9 2.3.1 11 1.3 5 .6 7.5.5 10.3 1-.4-.1-1.5-.4-.2-.3.2.3 3.5.2 4.1.6 1.3.1 5.4.7 4.1.1.7.3 4.4.8 2.1.7 1.2.2 2.4.4 3.4.4l-1.6-.3c2.1.2 3.7.5 5.1.7.7.1 1.4.2 2 .3.3 0 .7.1 1 .1h1.5-.2c-.5-.1-.7-.1-.9-.2l-1-.1c.6.1 1.1.1 1.6.2.5 0 1.1 0 1.5.1.4 0 .8.1 1.2.1.7.1 1.3.2 1.7.3h-2.6c4.2.2 6.7.2 10.2.2l-1.2-.1h8.2c.3 0 .7-.1 1.1-.1V217.1c0 .4-.1.7-.1 1.1-.1.8-.2 1.6-.2 2.3-.1 1.5-.3 2.9-.4 4 0 .3 0 .6-.1.8V225.9c0 .1-.1.1-.1.2l.3-.1c.1-.1.1-.2.2-.4v.5l-.3.4-.1.2-.1.1-.2.2c.4-.4-.2-1.1 0-1.1-1 .9-2.6 2.6-4.9 4.8-.8 4.3-2 9.8-3.1 15.7-2.3 5.5-4.7 11.4-6.8 16.3-1.7 2.5-3.2 4.7-4.4 6.5-1.3 1.9-2.3 3.4-3 4.2-1.7 2.2-.7.2-.7.1-1.8 2.9-.6 1.4-2.2 3.8-.5.6-.1-.3.1-.7-.7 1.1-1.4 2-1.4 2.2 1-1.3.9-.5 1.5-.9l-.9 1.4-.3.4-.1.1-.1-.2c-.1 0-.1.1-.1.2-.1.1 0 .2-.5.4-.7.5-1.8 1.1-3.5 1.8l-6 2.7c-1.8.8-3.6 1.7-5.4 2.5-1.8 0-3.5.1-5.2.1.1-.1 1.4-.3 2.7-.4-.8 0-2.1.1-2.9 0 1.5.2-2.6.2-1.4.3-4.6.7-10.5.4-14.6.8-.3.5-8.4 8.6-8.4 9.2-1.3 0-2.5.1-2.9 0 .3.1 2.8.1 4.1 0l.2-.3c3-.2.7.2 3.7.1.2.2-2.5.4-4.9.5 2.2 0 4.3.1 5.2-.2 2 0-.2.3 2.2.4 1.7-.1 4-.4 6-.4 4.9.1 7.4-.6 11.8-.5l-.5.1h2.6c.5 0 1.1 0 1.6-.1 1 0 1.9-.1 2.9-.1l1.4-.6.7-.3.4-.2c-.3.1-.5.2-.7.3-.3.1-.5.2-.6.2-.1 0 0-.1.3-.2.2-.1.5-.3 1-.5 3-1.2 5-2.3 7.2-3.1l2-1.2c1.8-.8 4.3-2 8.3-3.8 3.3-4.8 8.5-12.6 13.4-20 2.8-6.9 5.4-13.1 7.5-18.1.8-4 1.4-7.2 1.9-9.7.2-1.2.4-2.3.6-3.2 0-.2.1-.5.1-.7v-.1-.1c1.1-1.1 1.5-1.4 1.8-1.7l-.3.3 3.8-3.8c.9-6.9 1.9-15.2 3-24.2-9.8-.4-20.4-.8-30.4-1.1-4.8-.6-9.4-1.1-13.6-1.6-4.3-.5-8.1-.9-11.4-1.3-2.7-.6-6.5-1-9.4-1.4 1.6.3 1 .4-.2.2-8.7-1.1-.6.1-9.4-.9-1.2-.1-2.6-.3-4.4-.5-2.5.4-5.6.9-9.1 1.4-3.3.5-6.8 1-10.6 1.5-7.5 1.1-15.5 2.2-22.1 3.1-3 .8-5.7 1.5-8 2.1-2.2.6-4 1-5.2 1.3-1.9.7-4.1 1.3-6.2 1.9-2.8.8-5.5 1.5-8.1 2.3-.4.7-.8 1.3-1.2 2-.2.3-.4.6-.6 1-.2.3-.3.5-.5.8 0 0 0-.1.1-.2l.2-.4c-.4.6-.9 1.5-1.7 2.7-1 1.5-2.1 3.3-3.4 5.4.5 3.8 1 8.2 1.6 12.7 2 .8 4 1.7 6.1 2.6l1.7.7.4.2.3.6c.4.6.7 1.3 1 1.9.7 1.2 1.3 2.4 1.9 3.5.6 1.1 1.2 2.1 1.7 3 .2.5.5.9.7 1.3.1.1.1.2.2.3.1.3.1.5.1.6v-.4-.1.1c0 .1.1.3.1.4 0 .3.1.5.1.8.1.5.1.9.2 1.3.1.7.1 1.3.2 1.7.1 1 .1 1.8.3 3.9.1-.3.4.4.7 1.5.1.5.3 1.1.4 1.7.2 1 .3 2 .5 2.8.3.4.6.7.8.9h-.1c.3.4.7.9 1.2 1.4.3.3.6.6.9 1 .6.7 1.4 1.5 2.2 2.4 1.5 1.7 3.2 3.6 4.6 5.2h-.3c.6.6 1.3 1.4 2 2.2.4.4.7.9 1.1 1.3.5.6.9 1.2 1.4 1.7 2.2 1.6 4.3 3.2 5.5 4 2.2 1.7 5 3.8 8 6.1 2.4.5 5 1 7.5 1.5 2.2.4 4.5.8 6.6 1.1l4.8 1.5.7.1s9.3-6-.4-9.5l.2-.2-2-.3c-2.4-.6-3.5-.5-3.3-.7l3.3.6c-2.4-.5-.7-.3.2-.3-1-.2-2-.4-2.8-.6-.5 0 .3.2.7.3-1.3-.2-3.1-.3-4.7-.7-2.5-.5-.1-.4-3-.9-.9-.2-1.8-.3-2.6-.5l-1.3-.3h-.1c-3.6-2.7-7.2-5.4-10.7-8.2-3.6-4.5-7.1-8.9-10.8-13.4-.2-1.3-.4-2.7-.6-4 0-.4.1.1.2.5-.3-1.6-.5-3.1-.7-4.6-.3-1.8-.6-3.6-.8-5.4l-1.5-2.7-1-1.8c-.5-1.1-.5-1.4-.6-1.8 0 .1-.4-.7-1.2-2-1-1.8-2.5-4.4-4-7.2-1.8-.7-3.7-1.5-5.5-2.3l-.4-.2h-.1c-.1-.7-.2-1.4-.2-1.9 0-.3-.1-.6-.1-.9-.6.4-.6.3-.6.2z"/></g><g fill="#202020"><path d="M303.7 326.1c-.1-.2-.3-.2-.5-.3.2.1.3.2.5.3zM303.2 325.7zM295.6 293.3c-.1 0-.1.1-.2.1.1 0 .1 0 .2-.1z"/><path d="M294.5 320.4l-.2.1c-.4-.3 0-.3-.3-.5-.3.1-.5-.5-.7-.5l-.1-.2c-.2.1-.2-.1-.3-.2-.1 0 0 .1 0 .1l-.3-.2c-.1-.1 0-.2.1-.1-.3-.3-1-1.2-1.7-2.2-.6-1-1.1-2-1.3-2.3-.1.1.1.3 0 .5-.2-.2-.1-.3-.2-.4.2-.2-.1-.5.1-.7h-.2l.1-.1c-.4-.8-.2-.2-.3-1-.1-.4-.4-.6-.3-.9 0 0-.1.2-.1 0 .1 0-.1-.3 0-.4-.1-.1 0-.5-.2-.4.1-.1.1-.4.2-.2v-.3.2c-.1-.4.1-.6 0-.9l-.1.1c0-.2 0-.4.2-.5v.2c0-.4.1-.6 0-.9v.1c-.1-.2 0-.9.1-1.5.1-.7.3-1.3.3-1.6l-.2.1v-.4l.3.4c.1-.4.7-1.4 1.4-2.4.8-1 1.7-1.8 2-2.1.3-.1.2.1.2.1.2-.3 0-.2.3-.4.1 0 .1.1 0 .1.1-.1.2-.1.2-.2-.2.1-.2-.1-.4-.1l.3-.3.1.1c.1-.1 0-.4.3-.6.6-.4 1.1-.9 1.7-1.2 0 .1-.1.2-.2.3.1 0 .2-.1.3-.1-.2 0 .2-.2.1-.2.3-.5 1-.7 1.3-1-.1-.2-1.2-4.1-1.3-4.4.1-.1.3-.2.3-.2-.1 0-.4.1-.5.2l.1.1c-.3.2-.1 0-.4.2-.1-.1.2-.3.5-.5-.2.1-.5.2-.6.4-.2.1-.1-.1-.4 0-.2.1-.4.4-.6.5-.6.2-.7.7-1.2.9v-.1c-.2.1-.5.3-.8.5.1 0 .2 0 .1.1-.4.2-.6.4-.9.5l-.2.3c-.6.4-2 1.7-3.2 3.1-.3.4-.6.7-.9 1.1-.3.4-.5.8-.8 1.1-.4.7-.8 1.3-.9 1.7v-.1c-.5 1.1-1.3 2.9-1.5 4.8-.3 1.9-.1 3.9.3 5.1 0 .4.1.9.2 1.3 0-.2.1-.2.1 0 .4 1.2.1.1.6 1.2.3.6 1 2.2 1.9 3.5.9 1.4 1.9 2.6 2.3 3.1.6.3 1 1 1.6 1.3h-.1c.3.2 1.1.9 2 1.6.9.7 1.8 1.3 2.1 1.5l-.1-.1c.6.3.4.4.9.7 0-.2.6 0 .8.1.3.1 1 .3 1.5.5l-.1.1c.4.1 1.2.5 1.5.6.6.3 1.6 1 2.6 1.2l.5.5h.1s.6-.8 1-1.8.7-2.1.3-2.7l.1-.1-.2-.1c-.2-.1-.4-.1-.3-.2l.3.1c-.2-.1 0-.1.1-.1-.1 0-.2-.1-.3-.2-.1 0 0 .1.1.1-.1 0-.4 0-.5-.1-.3-.1 0-.2-.2-.3-1.5-.7-2.9-1.6-4.4-2.4 0-.1 0 0 .1 0-.5-.2-.8-.5-1.2-.7-.1-.1-.1-.2-.1-.2-.7.6-2.8-1-2.8-1.1z"/></g><path d="M316.4 319.7c-3.8-5.5-9.2-8.1-16-8 1.5 6.5 7.8 9.3 16 8z"/><path fill="#B5758D" d="M327.1 354.4c-16.1-3.8-25.3 4.5-39.3 10.7 7.4 14.4 23.7 23.8 40 22-.3-10.9-.5-21.8-.7-32.7z"/><path fill="#FFF" stroke="#000" stroke-width="2" stroke-miterlimit="10" d="M285.8 364.8c12.6 3.6 27.4 2.4 40.6 3.6"/><path fill="#E6B9AD" d="M196.8 288.7c-3.6-2.7-14.3-11.4-18.4-26.9-2.8-10.4-1.3-19.2-.3-23.8 2.8 2 6.7 5.4 8.7 10.7 2 5.3 0 6.9 1.7 12.7 2.4 8.3 7.8 9.3 9.3 16.7.8 4.3-.1 8.1-1 10.6z"/><path fill="#E6B9AD" d="M180.2 272.4c-2.7-4.7-4.6-10.6-5.3-16.6-.4-3-.5-6-.3-9 0-.7.1-1.5.1-2.2l.1-1.1.1-.5.1-.7c.3-2.5.8-4.7 1.3-7 .1-.4.2-.8.2-1.2 2.1 1.5 4.3 2.9 6.5 4.8l.7.7.2.2.1.1.2.2c.3.3.6.6.9 1 .6.7 1.1 1.4 1.6 2.1 1 1.5 1.9 3.1 2.5 4.8.3.9.6 1.8.8 2.7.2 1 .3 2 .3 2.9 0 1.9-.1 3.2.1 4.5.2 1.3.6 2.7 1.1 4 1 2.6 2.6 4.6 4.7 7.1-.2.1-1.1-.5-.5.4 1.3 1.8 1.7 3 1.8 3.6.1.6-.1.7-.3.8-.1.1-.5-.7-.9-1.3-.4-.6-.7-1-.5-.5-.9-1.4-2.3-2.9-3.2-3.9-.8-1-1.2-1.4-.4 0 .2.5 1.1 1.5 1.9 2.5.8 1 1.5 2.2 1.7 2.7.1.5-.2.4-.4.3-.3-.1-.6-.2-.4.3.2.4.6 1.1.9 1.7.3.7.5 1.4.6 1.9 0 1-.9-.8-.7.2.3 1.4.4 3 .3 4.8-.1 1.8-.5 3.7-1.2 5.5-.1 0-.3.2-.4.1-.1 0-.1-.3.2-1.2.6-2 .9-4 .8-6-.1-2-.6-3.9-1.5-5.6-.9-1.7-2.4-3.2-3.9-5.2-1.6-1.9-3-4.3-3.9-6.8-.4-1.2-.8-2.5-1-3.8-.2-1.3-.3-2.7-.3-4 0-1.2 0-2.2-.1-3.1-.1-.9-.4-1.8-.7-2.8-.7-1.9-1.8-3.6-3.1-5.2-.2-.2-.3-.4-.5-.6l-.5-.5-.1-.1V243.7l-.2 1.6c-.2 2.2-.2 4.4-.1 6.5.2 4.3 1.1 8.6 2.5 12.7 2.9 8.2 8.2 15.4 14.8 20.9 1.5 1.3 1.7 1.5 1 1.3-.6-.2-1.9-1-3.2-1.9.8.6.6.8 1.5 1.4-.2.3-2.2-.5-5.2-3.4l2.2 2.2c.7.8-.2.3-.4.4-.8-.7-1.5-1.4-1.6-1.4l-.3.3c.7.8 2.3 2.2 3.1 2.9-.8-.7-1.6-1.4-1.7-1.3-.1.1-.2.3-.3.3-1.7-1.4-3.7-3.8-5.1-5.4l-.3.2c1.3 1.8 3.6 4 5.2 5.5-.9-.7-.9-.6-1.1-.4-2.5-2.2-4.3-4.9-6.5-7.3.6.9 1.3 1.7 2 2.6-.5-.3-1-.9-1.5-1.5-.6-.7-1.1-1.5-1.7-2.3-1-1.8-2-3.7-2.8-5.2z"/><path fill="none" stroke="#492705" stroke-width=".25" stroke-miterlimit="10" d="M339.8 451.7c-65.9 15.8-116.5-57.4-140.7-102-.6-16.7-1.2-33.3-1.8-50 2.2 6.2 4.4 12.4 6.6 18.7l33.2 36 5.2 17.3 25.8 12.7.7-32.7 28.8-9.3 18.5-10h14l3.7.7 4.4 14-3 2-14 4h-14.8l-11.8 7.3-6.6 12v19.3l5.2 10 24.4 2 8.1-14 11.1-1.3 3 19.3v44z"/><path fill="#492705" d="M339.8 451.7c-65.9 15.8-116.5-57.4-140.7-102-.6-16.7-1.2-33.3-1.8-50 2.2 6.2 4.4 12.4 6.6 18.7l33.2 36 5.2 17.3 25.8 12.7.7-32.7 28.8-9.3 18.5-10h14l3.7.7 4.4 14-3 2-14 4h-14.8l-11.8 7.3-6.6 12v19.3l5.2 10 24.4 2 8.1-14 11.1-1.3 3 19.3v44zM199.2 210.7c-26.4 6.2-20.2-34.9-19.5-51.2.9-19.7 1.9-34.6 7.8-49 0 0 6.3-14.7 18.9-28.6C241.4 43.2 326 27 332.8 25.7c7.3 35.5.9 49.9-6.5 56.4-13 11.5-31-1.7-68.4 13.1-29.2 11.6-34.6 19.1-46.6 46.3-10 22.8-10 44.5-12.1 69.2z"/><path fill="#492705" d="M184.5 112.5c.3-.8.6-1.5.9-2.3.1-.4.3-.8.5-1.2l.5-1.1c.7-1.5 1.5-3 2.2-4.4 1.6-2.9 3.3-5.8 5.1-8.7 3.7-5.7 7.9-11.2 12.8-16.3 9.9-10.2 22.1-18.1 34.7-24.7 12.7-6.6 26-11.9 39.1-16.4 13.2-4.5 26.2-8.1 38.8-11.2 1.9-.4 3.8-.9 5.7-1.3l2.9-.6 1.4-.3 2.3-.5 2.7-.5c.2 0 .5-.1.6-.1l.1.7.3 1.3.8 4.4c.4 1.9.7 3.9 1 5.9.2 1 .3 2 .5 3l.4 3c.3 2 .4 4 .6 6l.1 1.5v1.5l.1 3-.1 3.1v1.5l-.1 1.5c-.3 4.1-1 8.3-2.3 12.3-1.4 4-3.5 8-6.6 11.3-1.5 1.6-3.4 3-5.4 4.1-2 1.1-4.2 1.9-6.4 2.3-4.3.9-8.5.9-12.5.9s-8 0-11.9.1c-3.9.2-7.8.6-11.6 1.2-7.7 1.2-15.2 3.4-22.4 6.2-7.3 2.9-14.4 6-20.8 10-3.1 2.1-6 4.4-8.5 7-2.5 2.6-4.6 5.6-6.6 8.8-.2-.1 2.2-4.5-.6-.4-2.7 4.2-4.4 7.6-5.7 10.2-1.3 2.6-2.2 4.2-2.8 5.4-1.2 2.2-1.4 2.2-1.7 2.1-.1 0 .3-.9.9-2.2.5-1.3 1.3-2.8 2-4.3 1.3-2.9 2.5-5.2 1.3-2.9 1.7-3.5 3.8-7.4 6.1-11 1.1-1.8 2.4-3.5 3.6-5 .6-.7 1.3-1.4 1.9-2.1.6-.7 1.2-1.2 1.8-1.8 1.1-1.1 2.2-1.9 2.9-2.6.8-.7 1.3-1.1 1.5-1.2.2-.2 0-.1-.6.3s-1.6 1.2-3.1 2.4c-1 .8-2.6 2.3-4.4 4.4-.9 1-1.8 2.2-2.7 3.4-.4.6-.9 1.3-1.3 1.9l-.7 1-.6 1c-3.3 5.5-6 11.3-7.2 13.6-2.5 4.5 1.5-4.9-.9-.4-1.1 2.3-2.7 5.8-4.1 9.5-.7 1.8-1.4 3.6-2 5.3-.5 1.7-1.1 3.2-1.4 4.5-.8 2.5-.6 1.2-.4-.1.2-1.3.5-2.6-.2-.1-1.1 3.7-2.1 7.8-3 12.2-.8 4.4-1.5 9-2 13.9-1.1 9.6-1.6 19.9-2.4 30.1-.2 0-.9 5.1-.2-5.1.8-11.2 1.4-22.5 3.1-33.8.9-5.6 2-11.3 3.6-16.8 1.5-5.5 3.6-11 6-16.2 2.3-5.2 4.7-10.4 7.5-15.5s6.3-10 10.7-14.1c4.4-4.1 9.4-7.3 14.6-9.9 5.2-2.6 10.5-4.8 15.8-6.9a110 110 0 0 1 34-7.3c5.8-.3 11.6-.1 17.1-.2 2.8-.1 5.4-.3 7.9-.9 2.4-.6 4.6-1.7 6.5-3.3 3.9-3.1 6.3-7.9 7.7-13 1.3-5.1 1.7-10.7 1.6-16.2-.1-5.5-.7-11.1-1.6-16.6l-.3-2.1-.4-2.1-.3-1.6-1.1.2-4.1.9c-11 2.4-22 5.3-32.8 8.6-10.8 3.3-21.4 7.1-31.8 11.5-10.3 4.4-20.4 9.4-29.9 15.4-4.7 3-9.2 6.2-13.5 9.8-4.2 3.6-8.1 7.4-11.6 11.7-3.5 4.2-6.7 8.8-9.6 13.5-1.4 2.4-2.8 4.8-4.1 7.2-.6 1.2-1.2 2.5-1.8 3.7l-.7 1.8c-.3.6-.5 1.3-.7 1.9-3.6 10.3-4.9 21.4-5.6 32.6-.4 5.6-.5 11.2-1 16.9-.4 5.6-.8 11.2-.8 16.7s.2 11 1.5 16.1c.6 2.5 1.5 4.9 2.9 6.8 1.3 2 3 3.2 5.1 3.9.5.2.9.2 1.4.3.2 0 .4.1.7.1h.7c.4 0 .8.1 1.2 0 .4 0 .7-.1 1.1-.1.6 0 1.2-.1 1.7-.2s.8-.1 1.1-.2c.6-.1.8-.1.6 0-.2.1-.7.2-1.4.4l-1.2.3c-.5.1-1 .1-1.6.2-1.1.1-2.4.1-3.8-.1-1.3-.3-2.7-.9-3.9-1.8-1.2-.9-2.3-2.3-3.2-3.8.3.5.6.9.8 1.3.1.2.2.4.3.5.1.1.2.3.3.4.2.3.4.5.6.8l.6.6c.8.8 1.6 1.5 3.8 2.2h-.4c-.1 0-.3 0-.5-.1s-.4-.2-.7-.3c-1.1-.4-2.6-1.2-4.1-3-1.5-1.8-2.9-4.6-3.9-8.3-.5-1.8-.8-3.8-1.1-6-.3-2.2-.4-4.6-.5-7.1.1 5.1.5 10.2 1.9 15 1.5 4.8-.3.1-.5.2-.7-2.4-1.1-5-1.4-6.9-.3-1.9-.4-3.2-.4-3.2h-.5c.2 2.6.6 6.4 1.7 10.2.6 1.9 1.3 3.7 2.2 5.3.2.4.5.7.7 1.1.2.4.5.7.7 1 .3.3.5.6.8.9.3.3.5.5.8.7-2-1.8-3.3-4.1-4.1-5.9-.4-.9-.7-1.7-.9-2.2-.2-.5-.3-.8-.3-.8-.1 0-.3.1-.4.1-1.6-5.1-2.1-11.6-2-18.1 0-6.5.6-12.9.9-18h-.3c-.4 5.1-.9 11.5-.9 18s.5 13 2.1 18.2c-.4-1.3-.7-2.2-.8-3-.2-.7-.3-1.2-.4-1.5-.2-.6-.3-.6-.4-.6-.7-3.9-.9-7.9-.9-11.8 0-3.9.2-7.8.4-11.7.2-3.9.6-7.7.8-11.5.2-3.8.3-7.7.5-11.6-.3 5.1-.5 10.3-.8 15.3.1-5 .3-14.1 1.2-23.7.5-4.8 1.1-9.8 2.1-14.6.1-4.6 1.4-9 2.8-12.7z"/><path fill="#E6B9AD" d="M325.7 94.8c-6 26.6-9 39.9-9.3 52.3-1 36.2 6.4 82.7 8.6 128.2 2.8 56.6-.3 84.6-.5 124.7 0 10.4-5 42.6 2.3 48.4 19.9 15.8 61.6-20.1 73.3-32.2 10.4-10.7 39.6-33.7 48.6-69.3 3.3-13.1 5.8-34.7 4.4-55.7-.2-2.8-.3-4-.5-7.5-1-21.6-1.9-40 8-48 2.8-2.3 6.6-3.7 6.5-6.5-.1-2.7-3.6-4.3-6-6-6.6-4.7-8.1-12.9-10-22.5-3.7-19.3 3.6-21.9 1-40-2.7-18.9-13.1-33.5-18.5-41.1-2.6-3.6-4.7-6.1-6.8-8.1-5.3-5.2-11.4-8.9-19.2-12.9C392.4 91 343 69 329.1 85.3c-1.7 2.3-2.2 4.5-3.4 9.5z"/><path fill="#FFF" d="M372.2 291.2l-18-8.1-12.6-18.2-7.3-17.1-3.1-14.9-5.2-5-2.2-16.7 25.4-1 48.8-6 41.6 6 26.1 7.1 5.4 8.3-1.1 8.5-7.4 3-7.1 12.8-2.1 14-12.5 15.1c-4.2 3.1-8.4 6.1-12.6 9.2l-22 4-34.1-1zm68.1-12.8l12.3-14.8 2.1-13.9 7.4-13.3 7.2-3 1-7.5-5-7.7-25.7-6.9-41.4-6-48.7 6-24.3 1 2 15.3 5.2 5 3.1 15.1 7.2 16.9 12.4 17.9 17.4 7.9 34.1 1 21.6-4 12.1-9z"/><path fill="none" d="M372.2 291.2l-18-8.1-12.6-18.2-7.3-17.1-3.1-14.9-5.2-5-2.2-16.7 25.4-1 48.8-6 41.6 6 26.1 7.1 5.4 8.3-1.1 8.5-7.4 3-7.1 12.8-2.1 14-12.5 15.1c-4.2 3.1-8.4 6.1-12.6 9.2l-22 4-34.1-1zm68.1-12.8l12.3-14.8 2.1-13.9 7.4-13.3 7.2-3 1-7.5-5-7.7-25.7-6.9-41.4-6-48.7 6-24.3 1 2 15.3 5.2 5 3.1 15.1 7.2 16.9 12.4 17.9 17.4 7.9 34.1 1 21.6-4 12.1-9z"/><g fill="#202020"><path d="M444.9 280.4c.9-.8 2.3-2.3 3.5-3.8-1.1 1-2.2 2.2-3.5 3.8zM448.5 276.6s-.1 0 0 0c-.1 0-.1 0 0 0zM435.8 274.6c-.4.3-.8.6-1.3.9.5-.2.9-.6 1.3-.9z"/><path d="M439.7 205.4l-.3.4c-4.5-.7-1.3-.6-5.5-1.2-1.7.3-7-1.1-8.5-1 0 0-2-.4-1.9-.5-.7.2-2.1-.2-3.4-.3-.5 0 .3.1.7.3l-3-.3c-1.1-.3-1.4-.5-.1-.3-3.1-.5-10.8-1.7-19.5-3-7 .8-14.7 1.7-21.3 2.5-6.4.8-11.7 1.4-14.3 1.8 1.1.1 3.7-.4 4.7-.1-2.2.5-3.3.3-4.2.7-.9-.4-4.9.5-6.6.1l-.6.4-1.1-.1c-2.9.5-4.2.7-5 .8-.4.1-.6.1-.7.1h-.2-1c-.7 0-1.8 0-3.6.1-5 .2-7.4.8-10.2.7.4 0 1.5.1.2.3-.1-.1-1 0-1.9 0-.2 0-.5 0-.7.1h-2.5c-2.4.1-10.2.4-7.2.7h-2.7c.2 2 .4 4.1-.1 1.3.3 2.3.5 4.6.8 6.3l-.3-2.9c.3 2 .5 3.7.7 5.3.1 1.2.3 2.3.4 3.3.2 1.4.3 2.7.7 4l-.1-1.6c.2 1.1.3 2.1.4 3 .2 1.5.3 2.9.3 4 .2.2.4.5.5.6l-.6-.9-.6-4c.2 1.5.4 2.8.5 4 .9.9 1.8 1.7 2.6 2.5.5.5 1 .9 1.4 1.3.4.4.8.7 1.2 1.1.1 0 .1.1.2.1 0 0 0 .1.1.1v-.1h.1l.1.1s0 .1.1.1c.1.2.1.4.2.7.2 1 .5 2.2.9 3.6.7 2.8 1.4 6.1 2.2 9.4.8 1.7 1.6 3.4 2.3 5.1.7 1.5 1.4 2.9 2 4.2 1.2 2.6 2.2 4.6 2.7 5.5l-.5-1.8 1.6 3.1c-.2-.4-1.5-1.2-1.6-1.6.3.7.7 1.6 1.3 3 2.8 4 8 11.5 13.4 19.2 6.8 3.1 13.8 6.2 19.3 8.7 2.7.1 5 .2 6.9.2 1.7.1 3 .1 3.9.2 2.8.2.5.5.5.5 3.4 0 1.5-.3 4.4-.1.8.1-.2.2-.6.2 1.3 0 2.5.1 2.6 0-1.6-.1-.9-.5-1.6-.7l3.7.1-.2.2c.8 0 2.1-.5 5.8-.3 1.5.1 3.1.1 4.7.2 1.7.1 3.5.1 5.2.2 3.3-.6 6.6-1.2 9.8-1.8-.1.1-1.3.5-2.6.8.8-.1 2.1-.4 2.8-.5-1.5 0 2.5-.6 1.4-.5 1.6-.5 3.4-.9 5.2-1.2 2.1-.4 4.2-.8 6.2-1.1.4-.3.9-.6 1.3-.9.3-.2.6-.5.9-.7.5-.4.9-.8 1.4-1.1 0-.6 2.1-11.8 1.7-12.3 1-.7 2-1.4 2.4-1.6-.3.1-2.4 1.5-3.4 2.3v.4c-2.4 1.8-.7.3-3 2-.3-.1 1.9-1.7 3.8-3.2-1.8 1.2-3.6 2.3-4.1 3.1-1.7 1.1 0-.4-2 .9-.5.4-1.2.9-1.8 1.5-.3.2-.6.5-.9.7H425.6c-.1 0-.3 0-.4.1-.3 0-.6.1-.8.1l-1.5.3c-1 .2-1.9.4-2.7.6-1.7.4-3.4.8-5.6 1.1l.5-.2c-1.6.1-4.5.9-7.3 1.2.8-.1 1.5 0-.1.3-.3 0-.7.1-1 .1-.5.1-.3 0-.3 0h-1c-.5 0-1 0-1.5-.1-1 0-1.9-.1-2.8-.2l-2.3.2c-2.4-.1-6.2-.2-10.7-.3-4.2-.1-9.2-.2-14.1-.3-5.3-2.4-10.7-4.7-15.1-6.7-5.7-8.1-9.4-13.4-11.3-16.2h.1c-1.8-4.3-4.2-9.8-6.9-15.9-1.1-5.1-2.2-10.6-3.4-16.1-1.3-1.2-2.5-2.4-3.8-3.6l-1.1-1-.2-.2v-.3c-.1-.6-.2-1.3-.3-1.9-.2-1.3-.4-2.6-.5-3.9l-.1-.9v-.1l-.1-.3c0-.2-.1-.4-.1-.6.2 0 .4 0 .6-.1H333c2.3-.1 4.3-.2 6.2-.3 2.8.1 6.5-.1 9.4-.1-1.6 0-1.1-.2.2-.3.6 0 1.1 0 1.4-.1.9-.1 1.6-.2 2.1-.3.5-.1.8-.1 1-.1.4-.1.5-.1.6-.1.2-.1.6-.2 4.7-.8 3.3-.5 9.8-1.3 17.3-2.2 7.3-.9 15.5-1.8 22.7-2.7 3.6.6 6.9 1.1 9.6 1.5 2.9.5 5.3.8 6.8 1.1 4.9.3 10.8 1.5 15.5 1.9h-.5c.7.1 2 .3 3.6.5 1.5.2 3.4.5 5.5.8 7.5 2.1 17.9 4.9 23.6 6.5.5.8.9 1.4 1.2 1.8l-.4-.7c1.1 1.5 1.7 2.4 2.1 3.2.1.2.1.3.1.5 0 .1-.1.1-.1.2 0 0 0 .1-.1.1 0 .1 0 0-.1.4.2-.2.3.6.2 1.7.1.3.1.7.1 1 0 0-.1 0-.1.1l-.1-.1c-.2.1-.5.3-.8.5l-1.8.9c-1.1.5-2.1 1-3.3 1.4-1.1 2-2.1 4.1-3.1 5.9l-.1-.3c-.6 1.2-1.4 2.8-2.3 4.4-1 1.8-2 3.7-2.9 5.2-.2 1.3-.3 2.4-.5 3.1-.5 2.8-1.1 6.4-1.8 10.2l-.3.3-.7.9-1.8 2.1c-1.2 1.4-2.3 2.8-3.4 4.2l-3.7 3.4-.4.6s.7 11.1 8.5 4.2l.1.3 1.3-1.6c1.6-1.8 2.1-2.8 2.2-2.5l-2.1 2.5c1.6-1.8.6-.4.1.3.7-.8 1.3-1.5 1.9-2.1.2-.4-.3.2-.6.5.8-1.1 1.8-2.6 2.9-3.7 1.6-1.9.4.1 2.2-2.1.9-1.1 1.9-2.2 2.8-3.3.8-4.8 1.5-9.6 2.3-14.3 2-3.5 4-7.1 6.1-10.6h.1l1.6-.7 6.6-2.7c.4-3.1.8-6.3 1.2-9.4.1-.3.1-.3.1-.1 0 .2 0 .6-.1 1 .2-1.5.4-3 .5-4.4-2.6-4-5-7.6-7.4-11.2-1-.3-2-.5-3-.8-.5-.2-1-.3-1.3-.4-.2-.1-.3-.2-.5-.2l-.6-.3c.3.2-4.4-1-9.6-2.4-5.3-1.4-11.2-3-13.2-3.5-.9-.3-.9-.3-1-.3z"/></g><g fill="#202020"><path d="M372.9 286.3c-1-.7-2.9-1.6-4.7-2.4 1.3.7 2.7 1.5 4.7 2.4zM368.2 283.8c-.1 0-.1 0 0 0-.1 0 0 0 0 0zM373.5 296.9h1.6c-.6.1-1.1 0-1.6 0z"/><path d="M330.5 216.8s-.1-.1-.1-.2c-.1-.1-.1-.2-.1-.2.2 0 .3.1.3.2v.1H331.2c.3 0 .8 0 1.3-.1 1.7-.6 7.2-.2 8.7-.6 0 0 2.1 0 2 .2.6-.3 2.2-.2 3.5-.3.5-.1-.4-.1-.7-.2l3.1-.2h1.3c.1 0 .2 0 .2.1l-.1.1h-.2c-.1 0-.3 0-.5.1h-.5.5c3.6-.4 12.6-1.4 22.3-2.6 9.4-1.1 19.5-2.3 26-3.1 2 .3 3.6.5 4.7.6-.5-.2-1.5-.3-2.4-.5-.5-.1-.9-.2-1.3-.3-.2 0-.4-.1-.6-.2-.1 0-.2-.1-.2-.1-.1 0-.1-.1-.1-.1H398.9c.2 0 .5.1.7.1.4.1.8.1 1.1.2.7.1 1.2.2 1.7.2.8.7 4.9.8 6.6 1.6l.7-.2 1.1.3c10 1.1 2.3.2 11.1 1.5 5.1.7 7.6.6 10.4 1.2-.4-.1-1.5-.4-.2-.3.2.3 3.5.3 4.1.7.3 0 .8.1 1.3.2.3 0 .5.1.8.1h.6c.1 0 .2 0 .4.1.2 0 .4.1.5.1.2 0 .3 0-.1-.2.6.4 4.3 1.4 2.1 1 1.2.3 2.4.7 3.3.9l-1.5-.5c4.2 1.1 6.3 2 9.1 2.4l-1.5-.6c2.5.6 4.6 1.2 5.4 1.8l-2.6-.6c2.1.5 3.7 1 5.3 1.4 1.4.4 3.7.9 3.4.7l-.2-.1h.3l.2.2c0-.1.3.4.5.7.2.3.5.7.7 1 .5.7 1 1.4 1.5 2.2.1.2.3.4.4.6l.1.1.2.2v.4c-.1.7-.1 1.4-.2 2.1l-.1.5v1.2c-.2.1-.3.2-.5.3l-.2.1h-.1l-.2.1-.5.2c-1.7.8-3.3 1.5-4.7 2.1-.4.7-.7 1.4-1 2-.3.6-.7 1.3-.8 1.5-.3.6-.5 1.1-.7 1.5l1.2-1.5-1.5 3.2c.2-.4 0-2 .3-2.2-1 1.8-3.1 5.6-5.7 10.3-.6 4.1-1.3 8.8-2 13.7-4 4.9-8.2 9.9-11.4 13.8-1.7 1.2-3.2 2.3-4.5 3.2-1.4 1-2.4 1.7-3.1 2.2-2.4 1.6-.7-.1-.7-.1-1.4 1.1-1.6 1.3-1.9 1.6l-.4.4c-.1.1-.3.2-.4.3-.1.1-.2.2-.4.3-.1 0-.1 0-.1-.1v-.2l.1-.1c-.1 0-.1.1-.2.1l-.1.1c-.1 0-.2 0-.2.1.2 0 .3.1.4.2.1.1.1.2.3.3l-.1.1-2.4.4.1-.2c-.8.1-2 1-5.7 1.5-2.1.4-4.3.8-6.5 1.1-2.1.4-4.1.8-6.2 1.1-2-.1-3.9-.1-5.8-.2.1-.1 1.4-.2 2.8-.2-.8 0-2.1 0-2.9-.2 1.5.3-2.7.1-1.5.2-4.7.4-10.6-.3-14.8 0-.4.5-9 8.1-9 8.7-1.3 0-2.5-.1-2.9-.2.3.1 2.8.3 4.2.2l.2-.3c3.1 0 .7.2 3.7.3.2.3-2.6.2-5 .2 2.2.1 4.3.3 5.2.1 2 .2-.2.3 2.2.5 1.8 0 4.1-.2 6.1 0 4.9.4 7.5-.2 12 .2l-.5.1c.7.1 1.6.1 2.7.1h1.7c.8 0 1.6.1 2.4.1l1.3-.2.7-.1c-.4.1-.7 0-1 0-.1 0 .1-.1.3-.1.2-.1.4-.1.8-.2 3.3-.4 5.4-1 7.8-1.2l2.2-.7c2.6-.5 6.6-1.2 11.6-2.1 4.2-3.1 9.2-6.7 14.2-10.4 5-6.1 9.9-12.1 13.8-16.9 1-7 1.6-11.4 2.1-14.6 2.1-3.8 2.9-5.2 3.5-6.3l-.2.4c.5-.9 1-1.9 1.6-2.9.2-.4.5-.9.8-1.4l.1-.2.2-.1c.5-.2 1.1-.5 1.7-.7 2.1-.9 4.3-1.8 6.6-2.7.5-4.2 1.1-8.8 1.7-13.4-2.5-3.8-5-7.7-7.5-11.6-9.9-2.6-20-5.3-28.4-7.5-4.6-.6-8.2-1.1-11.4-1.5-2.7-.6-6.6-1.1-9.4-1.6 1.6.3 1 .4-.2.2-8.8-1.3-.6.1-9.5-1.1-1.2-.2-2.8-.4-4.7-.6-2.1-.3-4.5-.6-7.2-1-4.1.5-8.8 1.1-13.7 1.7-4.6.5-9.4 1.1-13.9 1.6-9 1-16.9 1.9-20.4 2.3-.2 0-.5.1-.7.1-.2 0-.6.1-.5.1H348.8c-.3 0-.6 0-.9.1-.6 0-1.2.1-1.8.1-1.2.1-2.5.1-3.7.2-2.5.1-5 .2-7.1.4l.5-.1c-.9.1-2.4.1-4.4.2-3.4.1-7.5.3-12.1.5.9 7.3 2 15.9 2.9 23.3 2 1.9 3.8 3.7 5.3 5.2.4 1.7.6 2.9.8 3.6l-.1-.8c1.3 5.1.8 4.5 1.5 8.6.1-.2.2 0 .4.4.1.2.2.4.3.7 0 .1 0 .1.1.2v.1l.1.2c.1.3.1.5.2.8.2.4.4.8.6 1.3.1.3.3.6.4.9.3.6.5 1.1.7 1.5h-.1c1.1 2.4 3.7 7.6 5.4 11.6l-.3-.1c.2.3.3.7.5 1l.3.6c.1.3.3.6.4 1 .6.8 1.2 1.7 1.9 2.7.6.8 1.1 1.6 1.7 2.4 1.1 1.6 2 3 2.6 3.8.9 1.3 1.9 2.9 3 4.5.5.8 1.1 1.7 1.7 2.6.3.4.6.9.9 1.4.5.8 1 1.5 1.5 2.3 2 .9 4.1 1.9 6.1 2.8 1.7.8 3.4 1.5 5.1 2.2l4.4 2.7.7.2s10.6-3.6 1.8-9.3l.2-.1-1.9-.8c-2.2-1.1-3.3-1.3-3.1-1.5l3.1 1.4c-2.2-1.1-.6-.5.3-.2-.9-.4-1.8-.9-2.6-1.3-.5-.1.3.2.6.4-1.2-.5-3-1-4.5-1.8-2.3-1.1 0-.4-2.7-1.6l-1.2-.5-.1-.1c-3.8-5.6-7.5-11.1-11.2-16.7-1.8-4.4-4.8-11.6-6.8-16.1-.2-.7-.3-1.5-.5-2.2 0-.4.1 0 .2.5-1.1-5.1-2.1-9.6-3.1-14.3l-.6-.6c-.8-.8-1.3-1.4-1.6-1.8-.1-.1-.2-.2-.2-.3 0-.1-.1-.1-.1-.1-.1-.1-.1-.2-.1-.2.1.1-.3-.2-.9-.8l-1.1-1.1h-.1l-.3-2.1c-.2-1.5-.4-3.1-.6-4.6-.6-.4-.7-.9-.7-1.5 0 .1-.1 0 0 0z"/></g><g><g fill="#202020"><path d="M348.4 330.6c.2.1.4 0 .7-.1-.3 0-.5 0-.7.1zM349 330.5h.1-.1zM352.2 298.3s.1.1.2.1c-.1-.1-.1-.1-.2-.1z"/><path d="M359.7 324.9l-.1-.2c.5-.4.3.1.7-.3 0-.4.7-.6.8-.9 0 0 .2-.2.3-.1 0-.2.2-.2.3-.4 0-.1-.1 0-.1 0l.2-.3c.1-.1.2 0 .1.1.4-.3 1.5-1.5 2.4-2.7.9-1.3 1.7-2.7 1.9-3.3-.2.1-.2.5-.5.5 0-.3.2-.4.2-.6.3 0 .3-.6.7-.7l-.1-.1.1-.1c.3-1.4.1-.3.4-1.5.2-.7 0-1.1.1-1.5 0 .1-.1.2-.1 0 .1 0 0-.5.1-.6 0-.2.1-.8-.1-.6.1-.1.2-.6.2-.3 0-.2.1-.4 0-.5l-.1.2c0-.6.1-1-.1-1.3l-.1.2c0-.4-.1-.7.1-.8l.1.4c0-.6-.1-1-.3-1.5v.2c-.1-.3-.4-1.3-.8-2.2-.2-.4-.4-.9-.6-1.2-.2-.3-.4-.6-.5-.7v.3l-.3-.4s.5 0 .5.1c-.2-.5-1-1.9-2-3.1-1-1.2-2.1-2.2-2.4-2.6-.2-.3.1-.2.1-.2-.4-.3-.2 0-.5-.3-.1-.1.1-.1.1 0-.1-.1-.2-.2-.3-.2.1.2-.1.2-.1.4l-.4-.3.1-.1c-.1-.1-.4 0-.7-.3-.6-.5-1.3-1-1.9-1.5 0 0 .2 0 .4.1-.1-.1-.2-.1-.3-.2.1.2-.3-.1-.2 0-.6-.1-1.1-.7-1.7-.8-.2.2-3 3.1-3.1 3.4-.1-.1-.2-.1-.3-.2 0 .1.2.2.4.3l.1-.1c.3.1 0 .1.3.3 0 .1-.3 0-.6-.1.2.1.4.3.5.3.2.2-.1.1.1.3.2.1.5.1.6.3.4.4.8.3 1.1.7h-.1c.1.2.4.2.6.5-.1-.1-.1-.2.1-.1.2.3.5.4.6.6h.3c.5.4 1.6 1.3 2.6 2.3 1 1 1.7 2.2 2 2.7.4.7.9 1.9 1.1 3.1.2 1.2.2 2.5.1 3.3-.2.2-.2.6-.3.8.1-.1.2-.1.1.1-.3.8.1.1-.2.9-.1.5-.6 1.7-1.4 2.7-.7 1-1.6 2-2 2.3-.2.5-.8.9-1.1 1.3v-.1c-.2.2-.9.8-1.7 1.4-.8.6-1.6 1-1.8 1.3h.1c-.4.4-.5.2-.9.4.2.1-.2.5-.4.6-.2.2-.7.6-1.1.9v-.1c-.3.3-1 .6-1.2.7-.6.2-1.6.5-2.4.9l-.4-.7-.1.1s.1 1 .4 2c.3 1 .7 2.1 1.4 2.3v.1l.2-.1c.3-.1.4-.2.4-.1l-.4.1c.3-.1.1.1 0 .2.1 0 .2-.1.4-.1 0-.1-.1 0-.1 0 .1-.1.3-.3.5-.3.3-.1.1.2.4 0 1.9-.6 3.6-1.4 5.3-2.4.1 0 0 0 0 .1.5-.3 1-.6 1.4-1h.3c-.1 0 .6-.5 1.2-.9.8-.6 1.4-1.1 1.4-1.1z"/></g></g><g><path d="M334.1 319.7c3.8-5.5 9.2-8.1 16-8-1.5 6.5-7.8 9.3-16 8z"/></g><path fill="#B5758D" d="M325.4 354.4c16.1-3.8 25.3 4.5 39.3 10.7-7.4 14.4-23.7 23.8-40 22 .3-10.9.5-21.8.7-32.7z"/><path fill="#FFF" stroke="#000" stroke-width="2" stroke-miterlimit="10" d="M364.7 364.8c-12.6 3.6-27.4 2.4-40.6 3.6"/><g><path fill="#E6B9AD" d="M452.8 293.7c5.6-5.5 18.9-20.4 19-41 0-3.6-.4-6.9-1-10-1.6.5-3.8 1.5-5.5 3.5-2.9 3.4-2.3 7-3 11-1.7 9.8-9 10.6-11.5 19.5-1.1 3.7-1.5 9.2 2 17z"/><path fill="#E6B9AD" d="M464.4 274.2c2-4.5 3.9-9.7 4.6-15.1.2-1.4.4-2.7.4-4.1.1-1.4.2-2.7.1-4 0-1.3-.2-2.7-.3-3.9V246.5c0-.1-.1-.2-.1-.3 0-.1-.1 0-.1 0-.1.1-.3.2-.4.3l-.1.1-.2.1-.3.3c-.9.9-1.6 1.9-1.9 3-.4 1.2-.5 2.6-.6 4.2-.1.8-.1 1.7-.2 2.6-.1.9-.3 1.8-.5 2.8-.5 1.8-1.3 3.7-2.3 5.3-1 1.6-2.2 3-3.4 4.2-1.1 1.2-2.2 2.3-3 3.5-.8 1.1-1.5 2.3-2 3.5-.2-.1-.2-1-.6-.2-.8 1.7-1.1 2.6-1.4 3.1-.3.4-.5.4-.7.4-.1 0 0-.8.1-1.4.1-.6.3-1.1 0-.6.4-1.5 1.1-3.4 1.8-4.5.6-1.1.9-1.6-.1-.4-.2.2-.4.6-.7 1.1-.3.5-.5 1.1-.8 1.7-.2.6-.5 1.2-.6 1.8-.2.5-.3 1-.5 1.2-.5 1-.5-1.2-1-.2-.2 1.1-.4 3.3-.4 4.4-.2 1.1-.7-1.1-.7 0-.2 3.5 1 7.9 2.8 11.9-.1 0-.1.3-.2.4-.1 0-.3-.2-.8-1.2-1-2.3-1.7-4.8-2.2-7.4-.4-2.6-.5-5.3-.1-8s1.4-5.3 2.9-7.7c.7-1.2 1.6-2.2 2.4-3.2l2.4-2.7c1.5-1.7 2.6-3.3 3.3-5.2.1-.5.3-1 .4-1.5l.3-1.5c.2-1.1.2-2.2.3-3.5.1-1.3.3-2.6.7-4.1.4-1.4 1.1-2.9 2.1-4.1.5-.6 1-1.2 1.6-1.7.3-.3.5-.5.9-.8.5-.3 1-.7 1.5-1 2.1-1.2 4.1-1.7 6.1-2.4.4 2.2.9 4.3 1.2 6.5l.2 1.2.1.9c.1.6.1 1.2.1 1.8.1 1.2.1 2.4.1 3.6l-.2 3.6c-.4 4.8-1.5 9.5-3.1 14-3.3 9-8.8 16.9-15.2 23.5-1.6 1.5-1.9 1.6-1.5 1 .4-.6 1.4-1.9 2.3-3.2-.6.9-.9.6-1.6 1.5-.3-.3.9-2.1 3.5-5.5l-2.1 2.4c-.8.7-.3-.2-.4-.4.7-.8 1.4-1.6 1.3-1.7-.1-.1-.3-.2-.3-.3l-2.8 3.2c.7-.8 1.4-1.6 1.3-1.6-.1-.1-.3-.2-.3-.3 1.3-1.6 3.4-3.9 4.5-5.7l-.3-.2c-1.3 1.6-3.1 4.1-4.5 5.7.6-.9.5-.9.3-1.1 1.9-2.4 4.1-4.7 5.5-7.5-.6.8-1.1 1.7-1.7 2.5.2-.5.5-1.1.9-1.8s.9-1.5 1.4-2.3c.3-.4.5-.8.8-1.2.2-.4.5-.8.7-1.2.5-.5 1-1.2 1.3-2z"/></g><g><path fill="#492705" d="M318.8 451.7c62.3 15.8 110.1-57.4 132.9-102 0-14.7.1-29.3.1-44-1.6 4.2-3.1 8.4-4.7 12.7l-31.4 36-4.9 17.3-24.4 12.7-.7-32.7-27.2-9.3-17.4-10h-13.2l-3.5.7-4.2 14 2.8 2 13.3 4h13.9l11.2 7.3 6.3 12v19.3l-4.9 10-23 2-7.7-14-10.5-1.3-2.8 19.3v44z"/><path fill="none" d="M319.5 449l-1.4 5.5c7.6 1.9 15.5 2.7 23.3 2.1 7.8-.6 15.5-2.5 22.7-5.4 7.2-2.9 14-6.7 20.3-11.1 6.3-4.4 12.2-9.4 17.7-14.7 11-10.7 20.5-22.7 29-35.2 4.3-6.3 8.3-12.7 12.2-19.2 1.9-3.3 3.8-6.6 5.6-9.9.9-1.7 1.8-3.3 2.7-5l2.9-5.6.1-44.7.1-16-5.5 15-4.5 12.2-31.5 36-4.7 16.8-19.3 10-.6-30.1-28.8-9.9-17.9-10.2h-14.3l-5.4 1-5.3 17.6 4.8 3.4 14.1 4.3h13.5l9.8 6.5 5.6 10.7v18l-3.9 8-19.6 1.7-7.5-13.6-14.6-1.9-3.2 22.3v44.2h5.6V408l2.4-16.4 6.3.8 7.9 14.4 26.4-2.3 5.9-12v-20.7l-6.9-13.3-12.5-8.2h-14.4l-12.4-3.7-.8-.6 3.1-10.4 1.5-.3h12.2l17 9.8 25.6 8.8.8 35.2 29.5-15.3 5-17.9 31.3-35.9 4.8-13.2-5.5-1-.1 43.3-2.3 4.4c-.9 1.6-1.7 3.3-2.7 4.9-1.8 3.3-3.6 6.5-5.5 9.7-3.8 6.4-7.7 12.8-11.9 18.9-8.4 12.3-17.7 24-28.3 34.3-10.6 10.3-22.6 19.2-36.1 24.6-6.7 2.7-13.8 4.5-21 5-7.1.6-14.3-.1-21.3-1.9z"/><path fill-rule="evenodd" clip-rule="evenodd" fill="#492705" d="M388.8 363.2v.9c0 1.9.1 4.8.1 4.6-.1-1.3-.1-4.7-.1-5.5zM354 336.7c1.8 1 .4.2.9.5-1-.6-3.3-1.9-.9-.5zM359.5 339.9s.1 0 .1.1c.8.3 1 .4 1.2.4.1 0-.1 0 0 0l-1.2-.4c-.2-.1-.3-.2-.4-.2-.1-.1-.1-.1 0 0 .1 0 .3.1.3.1zM355.8 337.8c1 .6.8.4 1.6.9-.8-.4-1.5-.9-2.3-1.3-1-.5 2.4 1.4 1.7 1-5.3-3.1-2.4-1.4-1-.6z"/><path fill-rule="evenodd" clip-rule="evenodd" fill="#492705" d="M360 340.1c2.8 1 2.5.9 2.6.9-1.2-.4-2-.7-2.6-.9z"/><path fill-rule="evenodd" clip-rule="evenodd" fill="#492705" d="M359.6 340l1.8.6c.2.1-.1 0-1.2-.4-.2-.1-.4-.1-.6-.2zM439.5 323c1.3-1.5.4-.5 2.4-2.7.1-.1-.2.3-.6.7-1.3 1.5-1.4 1.7-1.8 2zM436.2 326.9c1.1-1.3 1.6-1.8 1.8-2-1.1 1.3-1.6 1.7-1.8 2zM438 379.2c-1.2 1.8-.6 1-.6.9 1.2-1.8.3-.4.6-.9zM355.4 337.6c3.2 1.8.4.3-.6-.3-1.7-1 1.3.8.6.3zM437.7 325.3c1.3-1.5-.5.6 0 0 1.4-1.6 1.1-1.3 2.3-2.6 1.3-1.5.3-.3.7-.7-1.2 1.2-1.3 1.3-3 3.3zM438.7 378c-.4.7-1.5 2.4.3-.6-.3.4-.3.5-.3.6z"/><path fill-rule="evenodd" clip-rule="evenodd" fill="#492705" d="M440.4 322.3c.9-1 1.7-1.9.7-.7-1.4 1.5-.4.3-.7.7zM350.6 335c3.6 2.1.5.3-.7-.4-2.5-1.4 1.9 1.1.7.4zM351.2 335.5c1.1.6 1.2.7 0 0-3.3-1.9.9.5 0 0zM358.9 339.9c.3.2.5.3.6.3.1 0 .2.1.6.2-.3-.1-.4-.1-.6-.2-.1 0-.2-.1-.5-.3h-.1zM348.7 334.2c1.9 1.1 2.1 1.3-1.4-.7.9.4 1.9 1 1.4.7zM432 332.4c-2.2 2.5.8-.9 0 0zM342.1 330.6c2.1 1.2 2.7 1.6 3 1.7 0 0-.6-.3-1-.6-1-.6-1.4-.8-1.7-1-.3-.2-.2-.1 0 0s.4.2.5.3h-.1c-.1-.1-.4-.2-.7-.4zM419.2 347.3c.8-1 1.6-1.8 1.8-2-1.3 1.5-2.3 2.6-4.1 4.7.4-.6 1.8-2.2 2.3-2.7zM419.3 347.4c1.3-1.5.3-.3.7-.7-2.3 2.5-.5.5-.7.7zM337.3 330.5h0zM447 313.1c1.1-2.9.4-1.1-.6 1.6-.2.6.7-1.8.6-1.6zM338.3 330.5H341.6s.1 0 .2.1c-.1 0-.2-.1-.2-.1H338.3zM321.9 334.9c.6-1.9-.9 3-.5 1.6-.7 2.2 0 0 .5-1.6zM321.2 337.3c.5-1.7.3-.9.8-2.6-.1.3-.6 2.1-1 3.4.1-.7.3-1.1.2-.8z"/><path fill-rule="evenodd" clip-rule="evenodd" fill="#492705" d="M343.8 331.8c-1.3-.8-1.9-1.1-2.2-1.3-.3 0-.2 0 0 0 .2.1.5.3.7.4-.3-.1-.5-.3-.7-.4H339.2h2.4c.6.4 1.3.8 2.2 1.3zM316.9 412.3v-.9c.1-.4 0 2.3 0 .9zM417.5 349.6c.8-.9 2.3-2.7 1.8-2-2 2.2-.4.4-1.8 2zM371.6 345c3.8 1.3 3.7 1.3 2.6.9-2.5-.9-.2 0-2.6-.9zM351.8 336.5c.7.4 1.2.7 1.5.9 1.9 1.1-.6-.3-2.2-1.3-.6-.4-.9-.5-.8-.5.8.6 1.3.8 1.5.9zM381.9 348.6c1.2.4 1.3.5 0 0-.6-.2-.7-.2-.8-.3.1 0-.3-.1-.8-.3.3.2 2.6.9 1.6.6zM418.1 349.1c1.1-1.3.4-.5.7-.8-1.8 2.1-.3.3-.7.8zM396.7 377.2c-3 1.5-3 1.6 0 0zM398.5 376.3c4.4-2.3-1 .5.1 0-1.5.7-1.1.5-.1 0zM338.6 354.6h0zM387.5 365.1c.1 2.6 0 2.4 0 1.9v-1.9z"/><path fill-rule="evenodd" clip-rule="evenodd" fill="#492705" d="M387.5 365.4c.1 2.9 0-.1 0 1.9-.1-2.6 0-2.2 0-1.9zM346.5 354.5h0zM387.3 358.6c.1 3.1 0 2.5 0 2.8 0-2.2 0-1.6-.1-3.6 0-2.2.1 1.3.1.8z"/><path fill-rule="evenodd" clip-rule="evenodd" fill="#492705" d="M387.3 362.4c0-1.8 0-1.7-.1-3.5 0 .8 0 .1.1 2.6v-.8 1.7z"/><path fill-rule="evenodd" clip-rule="evenodd" fill="#492705" d="M387.3 363.3c0 2.6-.1-2.8 0 .1-.1-4.2 0-2.6 0-.1zM453.1 323.7c-.1 3.6-.1 1.3 0 0 0-2.5-.1 1.2 0 0zM420 347.5c2.2-2.5 1.3-1.5-.5.6.5-.6.7-.8.5-.6zM446.3 316.9c.5-1.3.9-2.4.4-.9-.7 1.8-.2.4-.4.9zM397 427.9c-.9.8-1.3 1.1-1.4 1.2 1.2-1 1.4-1.2 2.6-2.4-1.1 1.1-1.5 1.4-1.2 1.2zM392.9 379.8c2.4-1.2-.1.1-.2.2-1 .5-1.8.9-2.3 1.2-.4.2-.6.3-.7.4-.1 0 .1-.1.9-.5 1.5-.8 3.6-2 2.3-1.3zM448.9 357.4c-1.4 2.5-1.9 3.5 0 0zM429.1 390c-1 1.5-.5.7 0 0 1.5-2.2-.4.6 0 0zM448.3 358.3c-.7 1.2-.9 1.7-.9 1.6 1.6-2.9.6-1 .9-1.6zM443 367.8c-.8 1.4-1.8 3.1 0 0 .6-1-1.3 2.2 0 0z"/><path fill-rule="evenodd" clip-rule="evenodd" fill="#492705" d="M443 367.8c-1.1 2-1.7 2.9 0 0-.7 1.1.2-.3 0 0zM390.4 381.2c3.3-1.7 1-.5 4-2.1-.5.3-1.1.6-3.1 1.6-2.1 1.1.3-.1-.9.5zM414.6 354.7c.1-.3.2-.6.2-.8.6-.7.8-.9.9-1.1.1-.1 0 0 0 0-.5.6-.6.7-.6.7l-.3.3-.4 1.6c-.1.2.1-.4.3-.9.1-.6.2-1-.1.2z"/><path fill-rule="evenodd" clip-rule="evenodd" fill="#492705" d="M413.5 358.8c.5-1.9 1.1-4 1-3.5-.3.9-.8 2.9-1 3.5zM452.6 325.3v0zM440.8 371.4c-.5.8-.3.6-.9 1.5 1.2-2.1 1-1.7 1.3-2.2 1.2-2.1.1-.2-.4.7zM396.1 428.3c-2.5 2.2-.9.8-1.4 1.2 1.9-1.6 1.2-1 1.4-1.2zM366.7 377.9v-4.5 2.7c.1 1.3.1 1.9 0 1.8zM448.2 358c-.8 1.5-.4.8.7-1.4-.3.7-.5 1.1-.7 1.4zM364.9 395.3c.3-.6.6-1.3 1.2-2.4-1.2 2.5-.6 1.2-.3.6-1.8 3.8-1.5 3.2-.9 1.8zM362.7 364.8c-1.3-2.5-.7-1.4-.9-1.7 1.1 2 .7 1.2.9 1.7zM365.1 395.2c1.4-2.9.2-.3 1.2-2.4.5-1 .5-.9.4-.7-.2.3-.5 1-.7 1.5l-.4.8c-.1.1-.5 1-.8 1.6-.4.5.6-1.5.3-.8zM427.1 392.3c-1.1 1.5-2 2.8-1.1 1.5.7-1 1-1.3 1.1-1.5z"/><path fill-rule="evenodd" clip-rule="evenodd" fill="#492705" d="M447.1 360c1.7-3.2.2-.5-.5.9.4-.7 1-1.8 1.7-3.1-.2.3.2-.4.5-.9-.4.7-1 1.7-1.7 3.1zM441.8 369.2c-.4.6-1.4 2.3-2.1 3.5-.8 1.2-1.2 1.9-.3.5 1-1.7.2-.4.5-.8 1.3-2.2.8-1.3.8-1.5 1.2-1.8 2.3-3.6 1.1-1.7zM365.2 394.9c1.1-2.3.7-1.5.8-1.7-.7 1.7-.8 1.8-.8 1.7z"/><path fill-rule="evenodd" clip-rule="evenodd" fill="#492705" d="M364.9 395.6c1.2-2.5 1.3-2.6 1.2-2.4l-1.2 2.4z"/><path fill-rule="evenodd" clip-rule="evenodd" fill="#492705" d="M365.7 394c.9-1.9.5-1 .2-.3-.1.3-.3.5-.2.3.1-.2.5-.9 1.2-2.4-.5 1-1.7 3.4-2.2 4.6.4-.9.7-1.4 1-2.2zM440.2 371.9c-.5.8-.9 1.5-1.4 2.3.8-1.3 1.1-1.9.8-1.4 1.1-1.8-.2.3 1.4-2.3-.4.6-1.2 2.1-.8 1.4zM410.3 371.3l-.1.1c-.2.1-.7.4-1.8 1 0 0-.2.1 0 0 .1-.2.6-.5 1.9-1.1z"/><path fill-rule="evenodd" clip-rule="evenodd" fill="#492705" d="M441.9 369c-1.1 1.8-.8 1.4-2.2 3.8.9-1.6.2-.3-1 1.6-.3.4 2.3-3.7 1.8-3 .4-.8 1.1-2 1.4-2.4zM432.1 384.8c-1.1 1.7-1.7 2.5.4-.7-.6.8-.5.8-.4.7zM441.3 369.8c-1 1.6-1.7 2.8-1 1.6.8-1.3 1.1-1.6 1-1.6zM443.1 366.8c-1.5 2.7-1.3 2.2-.5.8 1-1.6.2-.3.5-.8zM431.4 385.7c-.5.8-1.1 1.7-.6.8 1.1-1.6.2-.3.6-.8zM367 387.7v-1.8V387.7zM445.5 362.4c-1.5 2.6-2.2 3.8-1.4 2.4.3-.5.9-1.4 1.4-2.4zM403.7 420.5c.6-.5 3.1-3.3 3-3.2-1.7 1.8-1.5 1.7-3 3.2zM367 372.6c-.6-1.2-1.3-2.6-1.5-3.1.7 1.3 1.3 2.6 1.5 3.1 0 .1 0 .1 0 0z"/><path fill-rule="evenodd" clip-rule="evenodd" fill="#492705" d="M367 372.5c-1.1-2.1-1-1.9-1.2-2.3.6 1.2.9 1.7 1 1.9.1.2.2.2.2.4zM440 371.9l-1.8 3c.5-.8.3-.6 1.8-3zM442.9 366.8c.7-1.3.8-1.4.9-1.6.5-.9.8-1.3.9-1.5 1.6-2.7-2.1 3.6-1.8 3.1zM418.5 403.5c-1.5 1.9 1.1-1.4-.7.8 2.8-3.7 1.9-2.4.7-.8z"/><path fill-rule="evenodd" clip-rule="evenodd" fill="#492705" d="M443.8 365.3c-1.3 2.3-1.6 2.8-2.3 3.9.4-.7 1.7-2.8 1.3-2.3.6-1.1 1-1.8 1.3-2.3 1.8-3.1-1.9 3.4-.3.7zM438.4 374.4c-2.3 3.7-.2.3-.1.1 1.5-2.4-1.1 1.9.1-.1zM367.1 378.1v.7c.1 2.4.1-.1 0-.7zM419.1 402.4c-.1.1-1 1.3-1.6 2.1.4-.5-1.8 2.3-2.3 2.8-1.4 1.7.4-.5-.7.8.5-.6 1.3-1.5 2.3-2.7-2.2 2.8 1.5-2 2.3-3zM439.9 371.8c-1 1.6-1.4 2.3.8-1.4-1.7 2.9.3-.5-.8 1.4zM411.1 412.2c-1.8 2-1.9 2.1 0 0z"/><path fill-rule="evenodd" clip-rule="evenodd" fill="#492705" d="M438.8 373.5c-.8 1.2-.4.7-1 1.6 2.2-3.5 1.1-1.7 1-1.6zM440.2 371.2c-.9 1.4 1.1-1.8 2.5-4.4 1.1-1.8-2.1 3.6-2.5 4.4zM416.2 406.1c-3.3 3.9 2-2.4-1.2 1.4.2-.2 1.4-1.7 2.2-2.7-.6.8-.7.9-1 1.3zM434.6 380.3c-1 1.6-.3.4-.5.8 1.5-2.3.9-1.4 2.4-3.7-.4.5-1.6 2.4-1.9 2.9zM431.2 385.5c-1.2 1.9-2.5 3.7-1 1.5.7-1 1-1.5 1-1.5z"/><path fill-rule="evenodd" clip-rule="evenodd" fill="#492705" d="M434.5 380.5c-1.1 1.7-2.6 3.9-1.1 1.6 1-1.5.2-.3 1.9-3-1.1 1.7-1 1.5-.8 1.4zM386.6 380.1c0 .2 0 1.5.1 2.4V381c-.2-2.9-.1 1.3-.1-.9zM435.1 379.3c-2.5 4-2.3 3.6.8-1.3-.1.2-.9 1.4-1.4 2.2 1-1.6-.8 1.3.6-.9zM386.3 370.7c0 1 .1 3.5 0 1.8 0-.9 0-1.8-.1-2.6.1-.4.1 0 .1.8zM386.6 383.8v.3c.3-.2.6-.3.9-.5l.4-.2c-.7.3-1 .5-1.3.7v-.3zM367.4 386.8v0z"/><path fill-rule="evenodd" clip-rule="evenodd" fill="#492705" d="M386.3 372c0 2.2.1 4.9.1 4.5-.1-1.8-.1-4-.1-4.5zM430.8 385.7c-1.1 1.7-.2.4-.5.8 1.2-1.8 1-1.6.5-.8zM386.4 378.3v0zM367.5 388.9v-2.6 2.6zM345 403.2c2.4-.2 1.8-.1 1-.1-2 .2-.4.1-1 .1zM386.4 382.4v2c.2-.1.1-.1 0 0v-.9-1.1zM344.5 403.3c.7-.1 3.8-.3 1-.1-2 .2-3.4.3-1 .1zM341.1 403.6l2.6-.2c-1 .1-.8.1-3.5.3.2 0 .6 0 .9-.1zM428.1 389.4c-1.1 1.6-1.8 2.6-1.6 2.2 1.2-1.6 1.2-1.6 1.6-2.2zM367.6 386.4v-3.6c.1.3.1 1.5 0 3.6.1 1.1 0-2.6 0 0zM346.6 403.2c3.7-.3-.4 0 1.8-.1-.9.1-1.8.2-2.6.2-.7 0 1.5-.1.8-.1zM356.4 402.4c1.7-.1-.2 0 3.6-.3-1.7.1-4.8.4-3.6.3zM342.5 403.6c.8-.1.7-.1.9-.1.2 0 .8-.1.9-.1 1.2-.1.8-.1.9-.1-3.2.4-2.7.3-2.7.3z"/><path fill-rule="evenodd" clip-rule="evenodd" fill="#492705" d="M357.6 402.3c1.2-.1 2.3-.2 3.5-.3-1.2.1-.8.1-.8.1-2.6.2-1.9.2-2.7.2zM339 402.9c.2.3.4.7.6 1 1-.1 1.9-.2 2.7-.2-1.2.1-2.1.2-2.7.2-.5-.8-.7-1.1-.6-1zM426 392.2c-1.9 2.6.2-.3-.1.1 1.3-1.9-.4.6 1.6-2.2-1.6 2.2-.9 1.3-1.5 2.1zM340.8 404.1l3.6-.3c-2.3.2-3.7.3-.8.1 2.9-.3-1.8.2-.8.1-1.6 0-2.2.1-2 .1z"/><path fill-rule="evenodd" clip-rule="evenodd" fill="#492705" d="M341.6 404.1c1.8-.2 2-.2 1.9-.1-.7 0-1.4.1-1.9.1-.6.1-.8.1 0 0zM403.8 418.9c-1.2 1.1-.3.3-1.3 1.3l-1.2 1.2c-1.9 1.8.3-.4 2.5-2.5-.5.5 1.1-1.2 0 0zM362.3 402.3c.3 0 .6 0 .8-.1l.6-1.2c1-2-1 2 .1-.1-.3.6-.5 1-.6 1.3-1.2.2-.9.1-.9.1zM352.4 403.2c1.7-.1 1.2-.1.1 0-1.7.2-1.1.1-.1 0z"/><path fill-rule="evenodd" clip-rule="evenodd" fill="#492705" d="M363.7 401c.5-1.1.1-.1.1-.1-.9 1.7-.4.8-.7 1.4-.1 0-.4 0-.7.1.3 0 .5 0 .7-.1.3-.7.5-1.1.6-1.3zM334.5 395.8c1.2 2.2-.6-1.1.5.9-2.4-4.4-.4-.8-.5-.9zM338.9 403.8c.2.3.3.5.4.7 2.1-.2.4 0 3.4-.3-.4 0-2.7.2-3 .3h-.4c-1.5-2.7-.1-.2-.4-.7zM332 391.2c-.3-.6-.3-.5-.5-.8h-.3c-.7-.1-1.1-.1-1.2-.2.1 0 .5.1 1.5.2.2.2.4.5.5.8z"/><path fill-rule="evenodd" clip-rule="evenodd" fill="#492705" d="M339 404.1c.1.2.2.3.2.4 1.1-.1 2-.2 2.4-.2h-.1c-.3 0-.7.1-1.4.1-.3 0-.7.1-.9.1-.7-1.3-1-1.8-1.2-2.2.7 1.2 1.1 1.9 1.2 2.2-.1-.3-.5-1-1.7-3 .3.4 1.1 1.8 1.5 2.6zM345.1 404.1l2.6-.2c1.1-.1-3.2.2-2.6.2-2 .2-.5 0 0 0z"/><path fill-rule="evenodd" clip-rule="evenodd" fill="#492705" d="M337.4 401.4c.6 1.1 1 1.8 1.1 2.1.2.4.2.3.1.2-.1-.2-.4-.8.3.5-.8-1.5-1-1.8-1.1-2.1 0-.1 0-.1-.4-.7zM325.4 389.8c.9.1 1.8.2 2.6.3-1.7-.2.4 0-2.6-.3zM405.2 416.7c-1.6 1.7-1.3 1.4-1.9 2 1-1.1 1.1-1.1 1.2-1.3 1.1-1.1-.5.6.7-.7zM320.6 402.1c.2-1.5.1-.7.3-1.8-.5 3-.4 2.5-.3 1.8zM404.1 417.5c-1.2 1.3-1.7 1.7-1.9 1.9 2.4-2.4 1.9-1.8 1.9-1.9zM397.5 423.9c-.6.6-1 .9-1.3 1.2-1.8 1.7-1.2 1.1-.2.1.7-.6.8-.7 1.5-1.3zM405.5 415.8c-1.6 1.7-2.1 2.3-3.7 3.9 1.8-1.8 2.6-2.7 3-3.2l.7-.7zM401 420.3l-.6.6c-1.8 1.8-1.5 1.4-3.2 3.1.4-.4 1.1-1 1.3-1.2l3.7-3.7c.3-.2 1.2-1.1 1.9-2-.4.6-1.4 1.6-3.1 3.2-2 2.1 1.6-1.5 0 0zM395.3 425.8c-2.5 2.2-.8.7-1.4 1.2-.9.8-3.7 3.2 0 0 1.6-1.4.5-.4 1.4-1.2zM320.9 403.6c.8-5.7-.1 1 .3-1.9-.6 3.5-.2 1.1-.3 1.9z"/><path fill-rule="evenodd" clip-rule="evenodd" fill="#492705" d="M395 426c-.8.8-1.2 1-1.4 1.2 1.2-1 1.4-1.2 1.4-1.2zM399.2 422c1.1-1.1 0 0 0 0 2.4-2.4 2.5-2.5 0 0zM409.3 411.3c-1 1.1.1-.1-.6.7 2.1-2.4 1.1-1.3.6-.7zM320.4 418.2v-1 1zM450 331.6V331.6zM443.5 361.4c-.7 1.4-1 1.8-.9 1.6.5-.9.7-1.4.9-1.6.9-1.8.2-.4 0 0zM441.3 365.3c-.7 1.2.1-.2-.5.8.8-1.4 1.1-1.9 1.3-2.2l.1-.2c-.6.9-.8 1.4-.9 1.6zM427.7 387c-1 1.4-1 1.4-2.1 3 .4-.6.8-1.2 1-1.4 1.1-1.6-.1.2 1.5-2.2-.6.9-.1.1-.4.6zM451.3 312.4c1.7-4.5 0 0 1-2.6 1.4-3.8.8-2.2.6-1.6.3-.9.6-1.5.7-1.9l-3.6-.6c0 .9 0 .5 0 0l3.6.6c-.2.4-.3.8 0 0l-3.6-.6v0l3.6.7c-.1.2 0 .1 0 0l-3.6-.7c0 .1 0 .1 0 0l3.6.7c-1.2 3.2-1.1 2.9-2.4 6.6.4-1.5.4-1.6.1-.6zM320.6 417.6V414v3.6zM321.2 404.3c.3-1.9.6-3.8.8-5.3l-.6 4.4c-.1.3-.4 2.4-.2.9z"/><path fill-rule="evenodd" clip-rule="evenodd" fill="#492705" d="M320.7 411v-3.1c.3-2 .6-4 .7-4.7.2-1.4.2-1.5.4-2.6-.2 1.1-.2 1.6-.4 2.7.4-2.5 1.1-7.7 1.2-8.7.7-4.7-.9 6.1-.7 5-.5 3.8-.9 6-1.1 7.8l-.1.4V411zM326 391c.3 0-.5-.1-1.6-.2-.4-.1-.9-.1-1.1-.1v.1c0 .3-.1.9-.2 1.1.1-.6.1-.9.2-1.2.8 0 1.3.1 2.7.3zM449.6 342v0zM428.4 385.5c-1 1.5-1.5 2.2.9-1.4.4-.6-1.3 1.9-.9 1.4zM417.3 400.7c-1.9 2.4-1.3 1.7-.6.8-.3.4-2 2.6-3.3 4.1 1.1-1.3 3.2-4.1 4.8-6.1.9-1.3.5-.6-.9 1.2.1-.1.7-.8 0 0zM449.6 316.3v-.8.8zM449.7 317.7c.4-1 1-2.7 1.3-3.4-1.6 4.3-1.5 4-1.3 3.4zM383.6 356.7c0 .9 0 1.8.1 2.6v-.8c-.2-2.9-.1-1.4-.1-1.8zM383.1 353.2c.2.1.3.1.4.2v0c-.7-.3-1.1-.4-2-.7-.2-.1.4.1 1 .3.2.1.5.2.6.2 0 0 .1.1 0 0zM321.1 415.9v-.1V415.9zM321.1 420.3v0zM416.9 358.8c.2-.7.5-1.8-.4 1.6 0-.3.3-1.3.4-1.6zM321.6 404.4c.4-2.6.7-4.8.8-5.3-.3 2.3-.7 5-.9 6.1.1-.6.2-.9.1-.8zM394.1 383.1c1.9-1 1.9-.9.5-.2-2.1 1.1-5.9 3.1-10.5 5.5v-1.8 1.8c1.9-1 5-2.6 7.6-4 1.4-.8 2.6-1.4 2.4-1.3zM383.4 358.9c.1 3.6 0-.1 0 1 0 1.9.1 2.8.1 2.6.1 2.7-.1-2-.1-3.4-.1-2.7 0-1.7-.1-4.4 0 .5.1 2.9.1 4.2zM346.1 405.7c2.5-.2-1.3.1-2.4.2-2.4.2 3.1-.2 2.4-.2zM366.4 400.6l1.6-3.2c-1 2-1.6 3.2-3.4 6.9.2-.5 1.2-2.6 1.8-3.7zM388.9 373.2c0 1.2.1 2.4.1 2.6v2.7c-.1-4-.2-7.2-.2-8.8.1.7.1 1.9.1 3.5zM334.4 330h-1.6 1.6zM350 334.9c.4.2 1.9 1.1 1.5.8 2.1 1.2 5.3 3 4.6 2.6 1.2.7 1.7 1 3.2 1.8-3.1-1.8-5.6-3.2-6.1-3.5-2.4-1.4-1-.5-.7-.4-1.2-.6-.6-.2-2.5-1.3zM318.7 344.3c1.5-5.1 1.9-6.4.8-2.6.4-1.5-.1.5-.8 2.6zM346.1 332.8c-2.3-1.3-1.9-1.1-.8-.5 1 .6 1.2.7 2.3 1.3-1.7-.9-2.6-1.4-1.5-.8z"/><path fill-rule="evenodd" clip-rule="evenodd" fill="#492705" d="M322.6 350.9c.7.2 1.3.4 1.8.5.3.1.3.1-.4-.1 6.3 1.9-2-.6 7.3 2.2-.5-.2-3.5-1.1-4.3-1.3 1.2.4 3.1.9 4.1 1.2-2.8-.9-1.6-.5 1.6.4.2 0 1.5.4 1.7.5-2.7-.8-1.8-.5.2.1 0 0 .4.1.7.2.2 0 .2.1 0 0s-.5-.2-1-.3c-.1 0 .2.1-.8-.2-.3-.1-1.4-.4-1.8-.5 1.8.6 2.7.8 2.5.8-.8-.3-2.2-.7-2.6-.8 2.4.7 3.7 1.1 1.4.4 1.5.5 2.3.7 2.8.8H342.7c-2.1 0-2.6 0 1.4-.1h-2.7c5.2 0-2.6 0-.4-.1h3.6c-3.6 0 3.3-.1 3-.1h1.9c.2.1.4.3.7.5-.2-.1 1.1.7-.1-.1 1 .6 1.4.9 2.9 1.9-1.8-1.2 1.4.9 2.7 1.7-1.7-1.1-2.6-1.7-3-1.9l-.1-.1c1 .7 2.7 1.7 2.9 1.9-1.3-.9.5.3-2.5-1.7 2.8 1.8.7.4.7.5 0 0 1.4.9 1.5 1 3.3 2.2-4.1-2.8.2 0-1.7-1.1-4.8-3.1-2.3-1.5 2 1.3 1.5 1 3 2-1.6-1.1-.1-.2-.8-.7-.2-.1-.1 0-.7-.5.8.5 2.9 1.8 1.2.7 1.1.7.1 0 .4.2-.4-.3-1.5-1-2.2-1.4 4.7 3 4.5 2.9 4.1 2.6 1.4.9 2.1 1.4 2.4 1.6 0 .1 0 .1 0 0-.3-.2-1.1-.7-2.5-1.7-.4-.2.3.2 1.5 1-1-.7-.1 0-2.9-1.9l-.1-.1c.1.1.7.4 2.2 1.4-2.8-1.9 2.6 1.6.4.2.6.4 1.1.7 1.5 1 .6 1 .8 1.6 1 1.9.1.3.1.2.1.1-.1-.2-.2-.5.7 1.4-1-2-.9-1.7.8 1.4.9 1.7.6 1.1 1.3 2.6-.1-.3-.1-.2.8 1.5-1.4-2.6-1.2-2.3-.1-.2-1.8-3.5-.3-.5 0-.1-1.3-2.5-.3-.6-1.6-3.1-.7-1.4-.1-.3 1.1 2.1l.8 1.6c-.6-1.2 1.5 2.9-.9-1.7-.2-.4.5 1.1-.4-.7-.7-1.4-.3-.6.7 1.3 0-.1 0 0 .4.8.4.7-.6-1.1-.9-1.7 1.2 2.2 1.7 3.2 2 3.8.2.3.3.4.4.7v0c-.5-1-.7-1.3-.8-1.6 0-.1-.1-.2-.1-.3.4.8.7 1.4 1 1.8v11.4c0 7-.1-.5-.2 1.9V391.8l-.4.8c-.6 1.2.2-.4-1.1 2.3.7-1.5.8-1.7 1.5-3.1-.1.3-.9 2-1.1 2.2.5-1 .8-1.7 1.1-2.3v-1.8.1c0 .3 0 .6.1-1.5v-.1 3.3c-.2.5-.5 1-.8 1.6.3-.7.6-1.2.8-1.6v-1.9 1.9c-.1.1 0 .1 0 0v-1.5-.8-1.8 0c0 6.2 0 1.1.1 3.1V388v-2-3.2-6.2c0 4.9 0 1.2.1 2.3v-2.6-.2V385.4c0-2.2 0-4.9.1-3.1V382.2 381.2 380.9 382.5c0 1.5.1-.6.1-.6v1.8c0-.8.1-11.2.1-.5V383.1 390.8c0-7.4.1-1.4.1-4.1v2.7c0-2.6.1.2.1-2.4v5.1c-.4.8-.6 1.2-.8 1.5l-.1.2-1.1 2.2c-.6 1.1-1.8 3.7-1.9 4 3.6-7.4 1.6-3.1 2.9-5.8-.6 1.2-.3.6-1.5 3.1 2.3-4.7 1.9-3.7.7-1.2 1.7-3.5-.2.4.9-1.8l-2.4 4.8c1-2.1 1.7-3.5 1.5-3.2-2.9 5.8-1 2.1-2.1 4.1-.1.3-.5 1.1-1.2 2.4-.4 0-.9.1-1.5.1 1-.1 1.3-.1 1.5-.1.1-.1-.1.3.9-1.7l-.9 1.8c-1.8.2-2.7.2 0 0 .2-.5.5-1.1.9-1.9-.4.8-.7 1.5-.9 1.9-2.2.2-.4 0-3.8.4.6-.1-3.5.3-3.8.3-3 .3-1.3.1-1.6.2-1.2.1-1.9.2-2.7.2-.3.1.7 0-4.8.5 1-.1 2.4-.2 2.6-.2-3.5.3-1.8.2-1.4.2.2 0 .3 0 1.7-.2.1 0 1-.1-2.5.2.4 0 3.1-.3 3.6-.3-1.9.2-5.3.5-6.9.6 3.4-.3 5.4-.4-.8.1h.3s-.1 0-.5.1c-.5 0-1.3.1-2.6.2 1.8-.1 3.8-.3 4.9-.4 8.4-.7 9.4-.8 15.8-1.4-.9.1-1.7.1-1.6.1.3 0 1.3-.1 4.1-.4.1-.1.2-.3.3-.5-.1.2-.2.4-.3.5-2.4.2-2.3.2 0 0 0-.1.1-.2.2-.4-.1.2-.1.3-.2.3-1.1.1-1.7.1-2.1.2h-.2c.4 0 1.4-.1 2.2-.2.4-.8.7-1.4.4-1 1.9-3.9.5-1 2-4.1.2-.4.6-1.1.9-1.7-1.2 2.5-1.5 3.1-2.3 4.7 1.2-2.4.9-1.8.1-.1 1.5-3.2.7-1.4 1.5-3.1.6-1.2.9-1.8 1.6-3.3-2.1 4.4-2 4.1-1.1 2.2-.9 1.8-1 2.1-1.9 4 1.8-3.6 1.3-2.6-.2.5 2.8-5.8-.8 1.7.1-.2.2-.4.6-1.2 1.1-2.3-.3.5.7-1.4.4-.9-1.5 3.1-1.4 2.9-2 4 .8-1.5 1.3-2.6 1.6-3.3-.4.8-.6 1.4.5-1-1.3 2.7-2.1 4.4-2.5 5 .8-1.5 1.3-2.7 1.7-3.5.5-1-1.2 2.4 0 .1.8-1.6-1.7 3.5.9-1.8-.3.7-.3.6-1.5 3.1.1-.3 1.5-3.1 1.1-2.3-1.9 3.8-1.9 3.9-2.2 4.4-.1.1-.2.4-.4.7-1.2.1-3.5.3-4.8.4-1.1.1-1.3.1 1.4-.1-2.2.2-5.5.5-8.4.8-1.3.1-1.5.1-2.7.2-1.8.2 4.6-.4-.8.1-.2 0 .5-.1-1.9.1-.2 0-.6.1-1.7.2 2-.2-3.4.3-1.9.1-2 .2-2.9.3-3.6.3-.4-.7-.7-1.3-1.5-2.8-.7-1.2-.6-1-1.7-3-1.3-2.4-1-1.9.8 1.3.2.4-.5-.8.4.8.4.7 1.1 1.9 1.5 2.7-1.8-3.4-2-3.6-2.8-5.2 1.1 1.9-.2-.4 1.2 2.2-.4-.8-1.4-2.6-1.7-3.1 1.2 2.2 1.8 3.2 2.2 3.9.3.5.5.8.7 1.2-.5-.9-.4-.7-1.7-3.2-.1-.1-.3-.6-.4-.8 1.7 3.1 0 0 2.1 3.8-.1-.2-.2-.3-.2-.4.1.1.2.3.7 1.3-.5-1-1.1-2-1.5-2.7l-.4-.8c.9 1.7.9 1.7 1.9 3.4.2.3-1.8-3.4.6.9.2 0 .4 0 .8-.1-.3 0-.6 0-.8.1-6.7-12.2 2.6 4.7-2.3-4.4.6 1 .4.7.8 1.5-.1-.2-.1-.1.1.3.3.5.7 1.3 1.4 2.5 0-.1-.1-.1-.1-.1s0 .2.2.1c.3 0 .9-.1 1.9-.2-.8.1-1.5.1-2 .2l-3.2-5.8c-.8-1.5-.3-.6-.5-.9-.6-1-.9-1.6-1.1-1.9-.2-.3-.1-.2-.1-.2s1.2 2.1 1.3 2.3c-.1-.2-1.1-2.1-1.3-2.3-.4-.7 1.8 3.4-.8-1.3.2.4-.4-.7-1.3-2.4 1 1.9-.2-.2.2.6-.4-.7-.5-.9-.8-1.4.2.3.2.4.3.5l.1.3c.2.3.4.8.9 1.7-.6-1.1-.7-1.3-1.3-2.3.4.7 1.1 2 1.7 3.2-.9-1.6-1.2-2.2-2.1-3.9h-.2.2c.6 1.1.8 1.5.9 1.6-.4-.7-.7-1.3-.9-1.6h-.2.2c.4.8.7 1.3 1.4 2.6-.5-.9-1-1.8-1.4-2.6-.2 0-.4 0-.6-.1.2 0 .4.1.6.1.4.7.2.5 0 0-.9-.1-2.3-.3-2.6-.3 1 .1 2.8.4.9.1.8.1 1.3.2 1.7.2.1.3.2.4.4.7-.2-.3-.3-.5-.4-.7-.9-.1.1 0-.8-.1-2.8-.4-.7-.1-2.6-.3-1.8-.2-3.1-.4-4-.5-2.1-.3.8.1-1.4-.3 0 .3-.1.6-.2 1-.2 1.3.1-.5.1-.6-.1 1-.2 1.5-.3 1.8v.1c.1-.3.2-1.1 0-.1-1 7.1 0-.3-.3 1.9 0 .2 0 .3-.2 1.7 0 .1-.1.7-.1.9.1-.5.5-3.5-.2 1.1 0-.4.9-6.2.6-4.2-.2 1.6-.5 3.5-1.1 7.7-.2 1.1-.1.7-.3 1.8.4-2.9.4-2.5.4-2.8.2-1.3 0 .1.4-2.6 0 .2.2-1.1-.2 1.6-.2 1.4-.7 4.6-.4 2.6.1-.8.5-3.2.5-3.5-.2 1.3-.1.8-.1.8-.2 1.5-.4 2.7-.5 3.5.1-.3.2-1.2.3-1.8-.6 4.7.8-5 .4-2.3 0 .1 0 .2-.1.9.5-3.6.2-1.2.5-3.6-.1.8-.3 2.2-.1.8.2-1.3 0-.1.2-1.7.1-1 .2-1.4.3-1.8-.3 2.3-.2 1.1 0-.1-.1.9-.2 1.7-.4 2.6.2-1.1.2-1.1.3-1.9-.2 1.2-.3 1.9-.4 2.6.1-.9.2-1-.1.8-.2 1-.4 2.6-.7 4.5.2-1.4.1-.9.7-4.5.1-.5-.4 2.6 0 .1.1-.9.3-2.1.5-3.6-.2 1.6-.3 2-.2 1.7-.3 2.2-.7 4.8-.9 6.1.5-3.2.5-3.3.9-6.1-.1.7.2-1.4.3-1.8-.1.7-.4 2.8-.5 3.4-.4 2.7-.5 3.1-.8 5.3.1-.7.5-3.1.5-3.6-.3 2.2-.4 2.7-.5 3.5.8-5.5.6-3.9.7-4.7.3-2.1-.2 1.6.1-.8.2-1.2.2-1 .3-1.8-.3 2.1-.3 1.8-.7 5.2.5-3.2.1-.6.3-2-.2 1.3-.9 6.5-.5 3.4 0-.2 0-.3.2-1.7.1-.9.2-.9.2-1-.8 6-.8 5.5-1.2 8.6.2-1.3.3-2.1.4-2.6-.3 2.1-.4 2.9-.5 3.7v0c0-.1 0-.1 0 0V407.6c.1-.7.2-1.4.3-1.9v.3c-.1.4-.1 1-.2 1.7v14.8c0-16.8.1 2.2.1-4.9v-9.9c0-.1 0-.3.1-.5-.1.7.6-3.9 1.1-7.2.2-1.3.2-1 .3-1.9-.2 1.1-.3 2.1-.2 1.7.1-.9.2-1.6.6-4.3.1-.6.6-4 .8-5.1h.1c3.6.5 5.8.7 7.3.9h-.3.5c0 .1.1.1 0 .1v-.1c-.6-.1-1.6-.2-2.2-.3-.8-.1-.9-.1.9.1.4 0 .8.1 1.2.1.5.9 1.1 2 2.2 4-.2-.5.3.6 1.2 2.2.6 1.2 1.2 2.2 1.7 3.1 1.1 2 1.7 3.1 2.6 4.8h.2c1.8-.1 3.4-.3 4.1-.3h-.4c-.8.1-2 .2-4 .4-.1-.1-.2-.4-.4-.7.1.2.2.4.4.7 1.3-.1 3.9-.3 5.3-.4 1-.1 1.1-.1-1.7.2-.3 0-1.6.1-3.7.3-.4-.8-1-1.8-1.7-3 .2.3 1 1.9 1.7 3 1.2-.1 1.9-.2 0 0-.2-.3-.5-.9-.9-1.6-1.5-2.7-2.7-4.9-3.4-6.3-.7-1.2-.8-1.6-.4-.8-2.3-4.2-.4-.6 1.4 2.7-1-1.7-.5-.8.9 1.8-.3-.5-1.4-2.5-1.7-3 .2.3 4.2 7.8-.7-1.2-.6-1.2 1.4 2.6 1.3 2.4-.4-.7-.8-1.4-2.1-3.8-.8-1.6-1.6-2.9-2.3-4.2-2.6-.3-4.8-.6-7.3-1-.1.4-.1.9-.2 1.4-.3 2.2-.5 3.3-1.1 7.8 0 0 .1-.4.2-1 .1-.7.2-1.5.4-2.6.2-1.5.5-3.6.8-5.5 1.7.2 3.4.5 4.7.6.9.1 1.6.2 2.1.3h.5c3.3 6 5.1 9.3 7.8 14.3 1.3-.1 2.6-.2 4.1-.4 0 0 .2 0 .9-.1 7-.6 11.9-1 16.7-1.4 1.8-.2.6-.1 2.2-.2.2 0 .8-.1 1.8-.2l2.5-5c.5-1 .1-.2.7-1.5.9-1.9 1.8-3.7 2.5-5v-20.4c-2.2-4.1-4.3-8.3-6.8-13-3.2-2.1-6.6-4.4-10.6-6.9-.5-.3-.9-.6-1.6-1.1h-14.3c-.4-.1-.6-.2-.9-.3-3.4-1-7.1-2.1-11-3.3h-.1c-.1 0-.3-.1-.7-.2 0 0-.1-.1-.2-.1l-.2-.2c-.1-.1-.3-.3-.7-.5.1 0-.1 0-.2-.1.2-.7.5-1.6.5-1.7 1-3.4 1.9-6.3 2.8-9.6.7-.1 1.3-.3 2-.4h5.1c3.3 0-7.9 0-3.1.1h-2l-2 .4c-.1.2-.1.4-.2.7-.1.4-.2.8-1 3.5-.9 3.1-1.7 5.9-1.9 6.5-.1.2-.1.4-.2.6.7.5 1 .7 1.2.8h.1c.1 0 .2.1.3.1.3.1.6.2 1.1.3 1.7.5 1.1.3 3.4 1-1.4-.4.2 0 2.9.8 2 .6 3.5 1.1 4.7 1.4H348.7c.8.5 1.8 1.2 4.1 2.6 3 2 5 3.3 8.2 5.4.6 1.2 1.3 2.5 2.2 4.1 2.2 4.1 2.1 3.9 3.6 6.8-1.5-2.9-2.9-5.5-1.7-3.3.8 1.6 1 1.8 1.7 3.2.4.7.8 1.5 1.1 2.2V392c-.7 1.4-1.2 2.5-1.4 2.8 0 .1 0 0 .2-.3.2-.4.6-1.1 1.1-2.2.1-.1.1-.2.1-.3v-1.3.1c0-7.4 0-12.9-.1-18.4v-.9c-.5-.9-.8-1.6-1.7-3.3.3.6 1.2 2.3 1.4 2.8-.5-.9-.9-1.8-1.2-2.3-.2-.5-.3-.6-.2-.3-1.9-3.6-1.8-3.4-3.3-6.2-.6-1.2-.9-1.6-2-3.8-.5-.3-1.1-.7-1.9-1.2-.1-.1-.5-.4-1-.6-.4-.3-.8-.5-.6-.4 1.1.7 2.4 1.6 3.4 2.2.3.6.6 1.1.8 1.5.1.2.2.3.2.4-.4-.7-.7-1.3-1-1.8-4-2.6-5.1-3.3-8-5.2-1.7-1.1-3.1-2.1-4.4-2.9H334c-4.1-1.2-8-2.4-12.5-3.8-.3-.2-.7-.5-1-.7.3-.8.5-1.7.8-2.7-.1.2.7-2.1 1.4-4.5.4-1.2.7-2.3 1-3.2 0-.1.1-.2.1-.4v-.1c.8-.1 1.3-.2 1.8-.3h12.3c8 4.6 6.3 3.6 13.1 7.5 1.7 1 1.8 1 3.9 2.3.4.2.9.3 1.5.5.8.3 6.2 2.1 8.3 2.9 2.6.9 9.2 3.1 11.5 3.9-4.4-1.5-13.7-4.7-17.8-6.1 13.2 4.5 11.1 3.7 13.6 4.6-.4-.1-1.1-.4-2.5-.8-.8-.3.7.2 1.5.5-3.2-1.1-1.6-.5-3.4-1.2-.7-.2-1.2-.4-3.3-1.1.3.1-5-1.8-6.3-2.3-1-.3-2.3-.8-2.5-.9.1 0 .1 0 0 0l-.2-.1c-.1-.1-.3-.1-.5-.2-1.4-.8-3.4-2-5-3-.9-.5-2.1-1.2-2.3-1.3 1.3.8 1.2.7 1.4.8-.2-.1-.6-.4-1.5-.9.5.3-.3-.2.1 0s.8.5 1.8 1c1.2.7 2.9 1.7 5.6 3.2l.9.3c-.2-.1-.4-.1-.5-.2-.2-.1-.2-.1-.1 0 .1 0 .6.2 1.5.5 1.3.4 3.9 1.3 7.4 2.5-1.1-.4 3.8 1.3 6.6 2.2 1.1.4 1.6.5 3.3 1.1.7.2.7.2-.9-.3 1.1.4 1.8.6 2.5.9.2.1.1 0 1.7.6-.4-.1.3.1 1.4.5.6.2 1.5.5 2.2.8v0c-.3-.1-.8-.3-1.2-.4-.8-.3-1.2-.4-.9-.3.7.3 1.3.5 2.1.7v1.3c0 .3.1 3.3.1 4.4v-.9c.1 3.2 0 0 .1 4.4-.1-2.3 0-.6 0 1.1-.1-5.7-.1-3.7-.2-9.5v-.6-.1c-.5-.2-1.8-.6-2.5-.8-1.7-.6-11.6-3.9-13.1-4.4 4.5 1.5 4.7 1.6 3.5 1.2 4.2 1.4 3.2 1.1 2.6.9 4.9 1.7 6.7 2.3 9.4 3.2 0 .8 0 1.8.1 3v.9c0 1.3 0-.1.1 2.6v.9c.2 9.1.2 8.6.4 14.8.1 5.2-.2-7.5-.2-4.8 0-1.2-.1-2.3-.1-3.5-.1-3 .2 11.6.2 10 .1 4.2.2 7.9.2 10.9 3-1.5 5.4-2.8 7.3-3.7 1-.5 2.5-1.3 4.8-2.5.3-.2.8-.4 1.7-.8 1-.5 2.4-1.2 3.9-2 3.4-1.8 7.6-3.9 11-5.7.6-2.1 1.1-4 1.5-5.3.9-3.2 1.5-5.4 2.8-10.1.1-.4.4-1.5.7-2.4v-.1c3.2-3.7 3.4-3.9 5.2-6-1.8 2 .6-.7 5.6-6.4.1-.1.9-1 1.2-1.4 2.6-3 1.3-1.5 3.4-3.9-.9 1.1-5 5.8-6.2 7.2 1.6-1.9 1.5-1.7 2.9-3.3-.2.2-.5.5-.6.7 1.1-1.3 1.8-2 3.5-4-.1.1.9-1.1 1.7-1.9-1 1.1-2 2.3-.7.7.5-.6 1.5-1.8 2.4-2.7.8-1 2.4-2.8 2.1-2.5.9-1 2.2-2.5 4.7-5.4-.4.5 1.2-1.4 1.7-2 .8-.9 2.6-3 4.4-5.1.9-2.4 1.7-4.6 2-5.6 1.7-4.6.8-2 1.4-3.6.5-1.4.9-2.4 1.4-3.8l-4.3-.8v4.8c0-.9 0 6 .1.4 0 5.4.1-3.2.1-1.3v-3.8l3.9.7c-.2.5-.4 1-.6 1.6.1-.3-1 2.5-1.2 3 .8-2.1 1.3-3.6 1.2-3.3-1.6 4.4-.7 1.9-1.7 4.4-.1.4-.7 2.1-.6 1.9-.4 1.2-.5 1.4-.9 2.5.1-.3 0-.1-.2.4-.2.6-.6 1.5-.9 2.5-1 1.2-2.1 2.4-2.6 3-.4.5-.3.3 1.1-1.2-.4.4 0 0 .4-.5.2-.2.4-.5.6-.7.2-.3.3-.4.2-.2-1.3 1.5-2 2.3-2.3 2.6-.3.3-.1.1.1-.2.5-.6 1.7-1.9 1.3-1.5-1.5 1.7-.5.6-2.4 2.7-1.7 2-1.6 1.8-3.4 4-4.1 4.7-1.4 1.6-2 2.2.8-.9 1-1.1 1.7-2-.4.5-1.8 2 1.1-1.3 1.2-1.3-.2.2-.5.6 2.1-2.4 3.2-3.7 4-4.6.6-.7 1.6-1.9 2.6-3 .6-1.6 1.2-3.1 1.3-3.6.1-.2.2-.6.6-1.6.7-1.9.7-1.9 1.5-4.2-.4 1-.2.5.5-1.5-1.6 4.4-1.1 2.9-1 2.6.9-2.3 1-2.8.7-1.7 1.1-2.9.7-2 1.1-2.9l-3.5-.6v0l3.5.6c-.8 2.2-2.2 5.8-.3.6-.2.5 0 .1.3-.6l-3.4-.6v16.9c0-1.3 0 3.6.1.5v-4.3-1.9-2.5-1.8V309.1v-3.5l3.3.6c-.1.4-.4 1-.7 1.9.3-.8.5-1.5.7-1.9l-3.2-.6c0 .5 0 .6 0 0l3.2.6c0 .1-.1.2-.1.4-.1.2-.3.8-.9 2.5.6-1.6.8-2.3 1-2.9l-3.1-.6v18.8c0 4.8 0 8.6-.1 15.9-.1 4.8-.1-5.5-.1-.1v-4.1-4.4-3.2V326.8v-2.3V346.4c0-.4.1-3.6.1-1.6 0-3 .1-5.8 0 3.2v1.2c-.1.3-.1.3 0 .2 0 0 .1-.1.1 0s0 0-.2.5c.1-.2.2-.5.3-.6v-1.4-.5 2c-.6 1.1-1 2-1.4 2.6-.3.6-.5 1-.5.9.2-.4-2.7 5.1-3.8 7-1.2 2.1-1.1 2-2.4 4.2.1-.2.4-.7.7-1.2.1-.3.3-.5.4-.7.1-.2.1-.2.2-.3-1.7 3.1.8-1.4.3-.6-.3.5-2 3.6-2.2 3.9.2-.3 1.5-2.7 1.7-3-.1.2-.8 1.4-.9 1.6l.9-1.5c-.2.3-1.2 2.1-1.4 2.4 0-.1 1.2-2.2 1.3-2.3.7-1.3-1.6 2.8-1.8 3.2 1.2-2.2 2-3.5 2.2-3.8-1.5 2.6-1.3 2.2-2.2 3.9 2-3.6.1-.2 2.1-3.7-.8 1.5-2 3.4-1.9 3.3-.1.1-.7 1.2-1.3 2.3l-.2.2c-.2.3-.4.7-.8 1.4.5-.8.5-.9.9-1.5-.4.6-.7 1.2-.3.3-.6 1-1.4 2.3-1.8 3 1.1-1.9.6-1.1-.5.8.8-1.4 2.6-4.4 1.7-3-1.2 2.1-1.5 2.6-1.8 3.1.9-1.5.6-.9 1.8-3 1-1.7.5-.9 1.4-2.3-.4.7-1.6 2.6-3.6 6.1-.7 1.1-.7 1.2-1.3 2.2 2.6-4.3 1.1-1.8.1-.2-.1.1-.8 1.3-.9 1.5.5-.9 1.3-2.1 1.4-2.2-2.9 4.7-1.4 2.1-1.1 1.7-1.8 2.9-1.4 2.3-3.3 5.2.1-.1.3-.4.2-.2.9-1.4 1.4-2.2 1.9-3-.7 1.1-2 3.1-1.3 2.1.1-.2.7-1.2 1.4-2.2-2.1 3.3-1.1 1.8-1.7 2.8.2-.3-.9 1.4-1.5 2.3-.6.9-1.2 1.9.6-.8-.5.7-1 1.5-1.4 2.2 1.7-2.5-1.3 2.1.3-.4-.6.9-1.3 2-1.4 2.2 1.9-2.8-1.2 2 .8-1-1.8 2.7-2.6 3.8-1.5 2.3-3.4 5-.7 1.1-.4.6l-1 1.4c.6-.8 2.8-4.1 3.1-4.5.4-.5-2.2 3.3-1.3 2.1 1.7-2.5.6-.8 1.6-2.3.2-.3 2.4-3.6-.9 1.3-.2.4-1.1 1.6-1.5 2.2.2-.3-.5.7-2.5 3.6.6-.8-.8 1.2-.9 1.3 1.6-2.3 1.4-2 2.5-3.5.1-.1.3-.4.5-.8-.6.9-3.1 4.5-.9 1.4-.9 1.3-1.6 2.2-2 2.9-1.4 1.8-2.2 3-.4.4-1.6 2.3 1.6-2.2-1.3 1.7.9-1.3.3-.5 1.5-2.1-1.6 2.2 3.6-5.1-.3.4-.1.1.5-.7-.9 1.3.1-.2-1.8 2.5 1.9-2.7-.3.5-.8 1.1-.6.8-1.7 2.4-.3.5-1.5 2.1-.3.4-1.4 1.8 1.4-2-.3.3-1.1 1.4 1.6-2.4-2.6 3.7 1.2-1.6 1-1.4-.6 1-2.5 3.5-2.5 3.6-.1.1-.4.6-.5.7-.5.7 1.2-1.7 1.5-2.1-1.4 2-1 1.4-1.1 1.5 1.9-2.7 2.2-3.2 2.1-3-.1.2-.7 1-.7 1 .4-.6 1.9-2.9 1.5-2.4-1.3 2 0 .2-2.3 3.4 2.2-3-.7 1.1-.1.3-1.3 1.8-1.6 2.2-2.5 3.5-.8 1-.9 1.1-1.6 2.2-1.1 1.5 2.3-3-.8 1.2 1.7-2.3.8-1 .6-.8l3-4c.3-.5.2-.2-.2.3-1 1.3-.1.2-1.1 1.5l-.1.2c-.2.3-.6.8-1.4 1.8l-.6.8c-.8 1 .3-.3-3.1 4.1.5-.6 1.9-2.4 2.2-2.8-.4.5-.6.8-.5.7-2.5 3.1-2.6 3.4-3.8 4.8-1.5 1.8.9-1 1.7-2.1-1.4 1.8-2.1 2.6-3.3 4.1-.9 1.1-1.1 1.4-1 1.2.1-.2.6-.7 1.1-1.3-.3.4 1.7-2 .1-.1-.1.1 0 0-.6.7-1.5 1.8 0 .1-2.7 3.2.8-.9 1.7-2 2.3-2.7.4-.5-.1.1-.7.8-.6.7-1.3 1.5-1.5 1.7.9-.9 2.9-3.4 2.9-3.3-.2.3 1-1.2-1.6 1.9-.4.5-.6.7-1.2 1.4 1.2-1.3 0 .1 2.4-2.8-.6.8-3.1 3.6-3.4 3.9.4-.4 2.2-2.4 2.3-2.6-1 1.2-3.4 3.9-1.1 1.3-.5.6-.4.5-.5.6.9-1 2.1-2.4 2.3-2.7-1.9 2.3.8-.9-.7.9 1-1.2 1.4-1.7 1.7-2-.8 1-1.6 1.9.7-.8-.8.9-1.2 1.5-1.7 2 1.1-1.3-.1.2-1 1.2-2.3 2.6-.5.5-4.2 4.7.5-.4 5.2-5.9 4.3-4.7 1.3-1.5 2.1-2.5 2.3-2.7-.7.8-.4.5.6-.7-1.9 2.3-2 2.5-2.8 3.3 2.2-2.6-1.6 1.9 1.9-2.2-1.4 1.7-.6.9 1.7-1.8-1.3 1.6-.6.7-2.8 3.3 2.1-2.5-1.3 1.6 1.2-1.5.1-.1.2-.2 1.1-1.3.4-.5.3-.4.6-.7-.9 1.1-1.9 2.3-1.7 2 3.7-4.4.1-.1-.4.5 1.1-1.3 1.1-1.3 1.7-2 .3-.4.8-.9-2.1 2.6-.6.7 2.4-2.9.5-.6-.1.2-1.2 1.5-1.7 2 3.3-3.9 2.4-2.8 2-2.3.2-.3 1.7-2 1.7-2.1-.1.1-2.6 3.1-1.6 1.9-.2.2 0 0 0 0s1.3-1.5-1 1.2c-1.4 1.7-.9 1-1.8 2 .2-.3.9-1 .1-.1 3-3.4 2.4-2.8 1.2-1.4-.9 1-1.1 1.3-3 3.4 1-1.1 3.6-4.1-1.6 1.8.6-.7.8-.8 0 0-1.5 1.6-2.8 3-4.3 4.5 5.3-5.6-3 3.4 4.6-4.8-1.1 1.2-1.3 1.4-2.4 2.6 0 0 1.9-2 1.3-1.3-1.1 1.2-1.3 1.4-2.4 2.6l1.3-1.3c-.3.3.9-1 2.9-3.2-.8.9 1.9-2.1-1 1.2.5-.6-1.8 1.9-1.3 1.3-.7.8-1.7 1.8-2.4 2.6l-1.2 1.2c.9-.9 2.3-2.3 2.4-2.5-1.3 1.5-2.3 2.3-2.8 2.9l-.7.7c2.3-2.3 1.8-1.7 3.7-3.8-.7.7-.6.7-.5.6-1.5 1.6-1.3 1.3-3.7 3.8l1.9-1.9c-2.3 2.3-1.3 1.3-3 3.1 2.1-2.1.5-.4-1.2 1.2 1.8-1.7 1.2-1.1 3.2-3.1l-2.5 2.5c.7-.7.4-.4-.6.5.8-.7 1.8-1.8 2.6-2.5l-1.9 1.9c-1.1 1.2 6-5.9 4.6-4.5 4.4-4.7 2.7-2.9 1.3-1.4 1.4-1.5 2.1-2.3 2.4-2.6-1.3 1.4-1.1 1.2-.5.6-1.9 2-1.9 2-3 3.2 1-1.1-.1.1.7-.7.3-.4.9-1 1.8-1.9l.7-.7c-.6.7-1.2 1.3-1.8 1.9 3.4-3.6.5-.5 3.2-3.4.3-.3-.1.1-.6.7-.5.5-1 1.1-1.2 1.3.8-.9 1.3-1.4 1.8-1.9.7-.8-.1.1-.6.7-.6.6-.9 1 .7-.8-.2.3-2.5 2.8-1.1 1.2.2-.2 1.6-1.8 1.8-2-.8.9-1.5 1.7-1.7 2 1-1.1 1.3-1.5 1.8-2-1.6 1.8-1 1.2-.5.6l.6-.6c.3-.3 1.5-1.7.1-.1-.8.9-.2.2-1.2 1.4-1 1.1.8-.9 1.2-1.4-3.5 3.9 2.7-3-1.6 1.9 2.2-2.4-5.5 5.9-.8.8-3.4 3.6-1.4 1.5-2.5 2.6-1.9 2-1.5 1.5-2.5 2.5-.4.5.7-.7 1.3-1.3l-1.8 1.8-.7.7-1.8 1.8c1.5-1.4-.2.3.9-.8l2.5-2.5c-2.7 2.7 2.9-2.8 1.6-1.5 1.8-1.9 3.2-3.4 3.6-3.9-.8.9-2.1 2.2-3.6 3.9 2.5-2.6-1.1 1.2-.3.4 5.2-5.5.3-.3 4.5-4.7-.9.9-1 1.1 1-1.2 2.2-2.4 2.9-3.3-1 1.2 2.1-2.4-2.3 2.6 1.3-1.4-1.8 2.1-2.7 3-3 3.3-.2.3.2-.1.8-.8l-.6.6c.3-.3.3-.2.5-.5.3-.3.8-.8 2.3-2.5-.9 1-2 2.3-1.7 2 1.5-1.7 2.7-3.1 3-3.3-1.3 1.4-1.9 2.1-1.7 2 1-1.1 1.7-2 .6-.7.9-1 1.4-1.6 1.8-2-.1.2-.4.5-1.1 1.3-.9 1-.5.6-1.8 2 1.2-1.4.8-.9 1.8-2.1 2-2.3-.1.1 2.3-2.6 3.7-4.4 5-6.1 5.6-6.8.4-.5.8-.9 1.2-1.4-1.3 1.7-.9 1.2-1.7 2.1 1.6-1.9 3.3-4.1.7-.9.1-.2.5-.7 1.1-1.4.6-.8 1.2-1.6 1.7-2.2-1.3 1.7 2.5-3.3-.9 1.2 1.7-2.2.1-.2 1.7-2.2-2 2.6-1.5 2-.5.7-3.1 4.1-.7.9-2.6 3.4 1.9-2.4 1.5-1.9.6-.8.8-1.1 1.3-1.7 1.6-2.1-1.2 1.6 1.6-2.1-2 2.7 2.5-3.3 1.9-2.3-.3.5 3.1-4 2.5-3.3 1.2-1.5 1.4-1.9 2.8-3.6 3.8-5.1-.8 1.1-1.3 1.8-2.1 2.9-.4.6 2.8-3.6.6-.5.9-1.2 1.4-1.8 1.6-2.1-3.9 5.3 3.5-4.5-2.9 4 .4-.5 1.9-2.5 2.7-3.6-.4.6 1.4-1.8-.8 1.2 1.5-2 1-1.3 2.2-3-1.2 1.6-.6.8-1.6 2.2.4-.5 1.8-2.4-.8 1.2 2.5-3.3 1.8-2.5 3.7-5.1.1-.2.2-.2 2.9-4.2 1-1.4-1.8 2.6-.4.6 3.3-4.8-.6.8-.3.3.7-1 1.1-1.6 1.5-2.2.9-1.3-.4.5-1.1 1.6 3.1-4.5-2.9 4.1.9-1.6-2.3 3.4-2.2 3.2-2.7 3.9 2.2-3.2.8-1.2 3.1-4.5l-.4.6c.3-.5.6-1 2.2-3.3-1.3 2-2.9 4.3-3 4.4-.2.3.1-.1.3-.5.3-.4.6-.8.6-.9-2.8 4.1-1.4 2-1.2 1.7-.1.2-.4.6-1 1.4.9-1.4-1.9 2.8-.1.1-.1.2.2-.2 1-1.5 1.8-2.6-2 2.9-1.6 2.3 1.1-1.6.6-.9 1.5-2.2-.7 1.1.2-.4-.8 1-1.6 2.4-.3.5-2 2.9.3-.4-.7.9.5-.7.7-1 .9-1.2 1.5-2.2.1-.2-1 1.3-.5.5 2.3-3.4-.6.8-.2.2.6-.8-.7 1-1.3 1.7-.9 1.2.7-1.1-2 2.6.8-1.1 1.8-2.5 1.5-2.1-.8 1.1-1.9 2.6-2.1 2.9.4-.6 1.4-1.9 3-4.2-1 1.4-1.8 2.5-2.6 3.6-.1.2 1.5-2.1.1-.1-.2.3-1.5 2.1-1.1 1.5 3.3-4.5 1.1-1.6 2-2.8.1-.2.4-.6 1.1-1.5-1.7 2.3 1.1-1.5-.7.9-.8 1.1-.4.5-1.4 2-.4.6-.2.3-1.1 1.5 1-1.3 1.8-2.4 2.1-2.9-2.2 3.1 3.4-4.7.8-1.2.5-.6-.8 1.1-1 1.4.2-.3.8-1.1 1-1.4-3.6 4.9-.4.5-2.2 3 .7-1 1.4-2 2-2.8-1.7 2.4-2.3 3.2-2.2 3 1.5-2.1.5-.7 1.6-2.2-.4.6-2.2 3.1-3.3 4.4.2-.3 1.4-1.9 1.6-2.1-2.3 3.1-2.9 3.8-3.3 4.3 1.9-2.5 2.7-3.6 3.2-4.2-.6.8-.1.2.6-.8 1-1.4 1.9-2.6 3.1-4.3-.3.4-.8 1.1-1.5 2.1 1.3-1.7 0 .1 1.3-1.7-.6.8-1.2 1.6-1.5 2.1 1.7-2.4.4-.6 1.6-2.2 1-1.4 2.1-3.1 2.5-3.7-.7 1.1-1.2 1.7-1.5 2.2 3.1-4.5-.3.4 1.6-2.3-.7 1-1.2 1.8-1.5 2.2l2-2.9c.2-.3.5-.8.7-.9.3-.4 1.5-2.2 2-3-2.2 3.4 1-1.5-2.3 3.6 1.7-2.5-.6 1 1.7-2.4-.8 1.2-1.6 2.4-.4.7-.4.6.9-1.4.9-1.4-2.1 3.2-.5 1-1.5 2.4.1-.2.5-.8.9-1.4-.7 1-1.1 1.6-1.5 2.2 1.3-1.9-1.8 2.7-.9 1.4.6-.8.6-.9 0 0 1.4-2 1.1-1.7 2-3 .1-.1-.2.3.4-.7 2.1-3.1 0 .1-.2.4.9-1.4 1.6-2.5 2.4-3.7-1.7 2.7 2.3-3.7.1-.1-1.2 1.9-.9 1.3-2.9 4.5.7-1 1.8-2.7 2.5-3.7.7-1.1 1-1.6.1-.1 4.6-7.3 2.6-4.1 4.8-7.7-.9 1.5-2.2 3.6-.8 1.4.6-1 1.5-2.6 3.9-6.6.1-.2 0 0 .5-.8.7-1.2-2 3.4-1.4 2.4-1.7 2.9-.6 1.1-2.2 3.7l.3-.5c-.4.6 1.5-2.5 1.4-2.3l-.4.7c2.4-4 4.1-6.9 2-3.3 2.5-4.4.1 0 .1-.1.4-.7 1.6-2.8 1.8-3.1-2 3.5-1.4 2.4.5-.8-.2.4-1.1 1.9-1.7 3 1-1.7 1.8-3.2 3.1-5.5-1.1 1.9-1.3 2.4-1.7 3.1.6-1.1.9-1.5 1.3-2.3-.1.2-.4.6-.9 1.5 3.1-5.6-1.4 2.5.1-.1.1-.1.1-.3.9-1.5-.2.3-.1.3-1.6 2.9 2-3.5-.7 1.2-.4.7 2.9-5.1 3.3-5.8 1-1.7 1.1-1.9 2.4-4.4 1-1.6 2.3-4.1.5-.9 1.6-3 1.1-1.9 0 .1 1-1.7-1.2 2.1-1.9 3.6-3.4 6.1.3-.5 1.6-2.9 2.2-3.9.1-.1-.1.2.4-.7 1.6-2.9 1-1.7-1.6 3-.4.7-1.5 2.7-1.8 3.1 1.9-3.3 1.5-2.7 3.1-5.5.6-1.1-1.3 2.3-.9 1.6 1.3-2.4 1.8-3.2 2.5-4.6-.2.4-.1.2.5-.9-.8 1.5-.6 1-1.7 3.1-.4.8 1.4-2.6 1.7-3.2-.5.9-.6 1.1-1.6 3.1 2.3-4.3 1.2-2.1 1.5-2.6 1.8-3.4 0 .1 1.2-2.3 1.4-2.6 1.8-3.5 2.5-4.7v-3.4-1c0 1.8 0 2.1.1 2.3v2.1c-.2.3-.4.7-.6 1.2.1-.2.4-.7.6-1.2v-1.5V350.4c-.2.4-.5 1-.9 1.7.6-1.1.8-1.4.9-1.7 0 0-.1.2 0 0V349v-1.8c0 3.5.1-4.9.1-2.3v-5.1-3.2-.9-.9-2.8-1.5-2-4.2-3.5-1-2.6-.1-2-1V310.5v-1.1-2.4c0 .5-.1-1.1-.1.5v-.6-5.4l-1.6 4.4c-.1.2-.2.5-.3.8.6-1.7-.6 1.5.2-.7-.5 1.2-.7 1.9-.9 2.5.7-2-.1 0-1.1 2.7-.5 1.4-1.1 2.9-1.6 4.3-.2.6-.5 1.2-.7 1.8-.1.2-.2.5-.3.7 0 .1-.1.2-.1.3l-.1.1c-1.3 1.5-2.1 2.4-2.6 3-.5.6-.7.8-.7.8s.8-1 1.5-1.8c-2.6 3-.3.3-2.4 2.8-1.1 1.3-.1.1-2.2 2.6-1 1.2-3.3 3.8-3.5 4-1.2 1.3 3.5-4.1.9-1.1.1-.1-4.2 4.9-3.8 4.5-.1.1-4.8 5.5-2.9 3.3 3.6-4.1.9-1.1 3-3.4-.3.3-1.7 2-3.4 4-2.5 2.8-2.1 2.4-4.2 4.8-2.4 2.8-3.3 3.8-2.2 2.6-4.4 5.1 1.3-1.3 0 .2-.1.1-.4.5-.7.8-.3.4-.6.7-.4.5.7-.8 4-4.5-.2.4 1-1.2.4-.4.2-.2 1.5-1.8 2.1-2.4 1.8-2.1-1.2 1.3-.7.8-2.3 2.7-.3.3-.4.5-1.2 1.4-.8.9 0 .1-2.3 2.6-.5.6-2.6 2.9-3.2 3.6l-.1.1c-.1.3-.3.9-.4 1.4-.1.4-.2.7-.1.4.2-.7.4-1.3.5-1.8 2.3-2.7 2.8-3.1 6.8-7.7-.5.6-3 3.4-4 4.6-3 3.4 0 0-2 2.4-.2.3-.5.5-.6.7-.7 2.5-.8 2.7-1.3 4.6-.2.9-.7 2.3-1.2 4.3.8-2.9.7-2.4 1.1-3.7-2.6 9.6.7-1.5-.5 3.1.6-1.9.9-2.8 1.2-3.9.5-1.9 1-3.4 1.2-4.2.5-.6.6-.7 0 0 0 .1-.1.3-.1.5.1-.2.1-.4.1-.5.6-.6.9-1 1.3-1.4l.5-.5s-.2.2-.5.6c-.3.4-.7.8-1.2 1.4v.1c-.1.3.2-.8-1.1 3.6.1-.4.2-.9.5-1.7.1-.2 0-.1.2-.9-.4 1.3-1.5 5.3-1.7 6 1.2-4.2-.2.6 1.4-5 .1-.5-.5 2 .3-.9.1-.3-.3 1-.6 2-.8 3 .3-1.1.1-.2-.3 1.1-.9 3.1-1.2 4.2-.6 2 .3-.9-.9 3.2-.9 3 .7-2.7.6-2.3 0 .1-.2.6-.2.9-.2.8.1-.6-.3 1 .3-1.2 1.8-6.5-.1.1.2-.8.3-1.1-.7 2.4-.4 1.5 1.5-5.1.6-1.9-.2.6-.5 1.8-1.3 4.4-.1.5 1-3.5.8-2.7-.3 1.2-.4 1.5-.7 2.6.5-1.6.9-3.2-.2.7-.2.6-.3 1.1-.5 1.5-.5.3-1 .5-1.7.8.6-.3 1.3-.7 1.7-.9.1-.3.1-.3 0 0 0 0-.1.1-.2.1-.5.3-1 .5-1.4.7-3.3 1.7 3.3-1.7-2.1 1.1l-.2.1c-4.3 2.2-5.1 2.6-4.1 2.1-5.4 2.9 4.2-2.1 5.2-2.6-2.8 1.4-2.9 1.5-5.5 2.9 4.7-2.4-2.2 1.2-1.8 1-2.9 1.5-4.3 2.2-2.8 1.4l-2.4 1.2c2.7-1.4 0 0-2.1 1 1.1-.6 1.3-.7 2.4-1.2-5.8 3-1.5.7-3.5 1.7l-.8.4c.8-.4 1.2-.6.8-.5-.3.2-1.7.9-3.4 1.7.9-.5 1.8-.9 2.7-1.4-1.2.6-2.6 1.3-3.5 1.7-.6.3-.6.2.9-.5-.9.5-1.4.7-1.7.9v-.1c.1.6.1-1 .1-2.3v-2c0-.5 0-.6.1 0v-1.7c.1 2.4.1 3 .1 2.8v-.9c0 .9.1 2.5.1 3.4-.1-2.7 0-1.4-.1-4.4 0 .8 0 1.5.1 1.9V379.7v-.7c0-.2 0-.2 0 0v1.2c0-.2 0-1.3-.1-2.5 0-.8 0-1.3.1 1.6v-.1 1.9c0-.8-.1-3.6-.1-4.5.2 3.5.2 1.7.3-.9-.1-.7-.2-2.1-.2 1.4-.1-2 0 .4-.1-2.6 0 3.3-.2-3.7-.1.9 0-1-.1-2.4-.1-2.6.1 3.3.1 3.4.1 4.5-.1-3.4 0-.4-.1-4.2.1 3.9 0 .1 0-.7 0 1.2.1 3.2.1 3.6-.1-2.6 0-.2-.1-2.6.1 4 0 1.6 0 2.8-.1-2.5-.1-3-.1-3.2v.8c0 1.3 0 2.1.1 2.7-.1-2-.1.6-.2-2.5v-.9 1.8c-.1-2.4 0-1.7-.1-3.5v-.7c.1 2.8 0 2.1.1 3.5v1c0-1.8 0-1.2-.1-3.5 0-1.1.1 3 0 1.9-.1-3.7 0-1.2-.1-3.4.1 3.3.1 3.3.1 5.3v1c0-.9 0-1.8-.1-2.6 0 .8.1 4.3 0 .2 0 1-.1-3.7 0-.2-.2-7.1 0 1.7-.2-5 0-1.4.1-.1.1 0 0-1.5 0-2.2-.1-2.7v.8c0 2.2-.1-2.1 0 1.8v-1.1c0-.2-.1-2.4-.1-4.4.1 3.9.1.7.1 1 .1.4.2 2.3.2 3.4v1.8c-.1-4.2.1 1.7 0-3 0 .8 0 1.6.1 4.3v-1c0 .4 0-1-.1-4.3 0-.5 0-.1.1 1.4-.1-3.4 0-.7 0-4-.1-2.5 0 3.6-.2-5 .1 2-.1-4.1 0-1.1-.1-3-.1-3 0-1.8 0-2-.1-3.2-.1-3.8-2.5-.9 2.5.8-2.7-1 1.1.4 2 .7 2.8.9 0 1.4.1 2.4.1 3.4-.1-3-.1-2.5-.1-3.4-.3-.1-.8-.3-1.7-.6-.7-.2 1.6.6-1.2-.4-1.8-.7-3.5-1.3-4.9-1.8-7.8-2.7-1.6-.6-3.5-1.2-3.8-1.3-.8-.3-1-.4-.9-.3-3.1-1.1-4.5-1.6-3.9-1.3 1.7.6-.6-.2-1.9-.7-3.6-1.2-4.2-1.4 1.4.5 0 0-2.6-.9 1.2.4-.1 0-1.5-.5-.7-.2-1.6-.5-2.4-.8-.9-.5-1.6-.9-1.9-1.1-.2-.1.2.1 1.8 1-3.4-2-1.9-1.1-3.3-1.9-4.2-2.4-3-1.7-3.2-1.9-3.5-2-4.9-2.9-6.2-3.6-1.5-.9.8.5-.7-.4-1.5-.8-2.9-1.7-4.2-2.4h-4.2 2.7-4.6H325.6l-.5.1c.1 0 .3-.1.5-.1H326.3h-.7c-.2 0-.4.1-.7.1-1.2.2-.9.2-.8.2l-.3.1c-.5.1-1.3.3-2.9.6 0 .2-.1.4-.2.6l-.1.1c-.9 2.9-.8 2.7-1.7 5.8.1-.5-.3.9.3-.9-.1.2.2-.7.7-2.5 0-.1-.1.4-.2.7-1.6 5.2-1.6 5.2-1.5 4.6-.5 1.6-1 3.4-1.3 4.3l.1-.2c.1-.2.2-.6.5-1.5.1-.2-.1.2-.3.9-.3.9-.6 2.1-.9 3.2-.2.5-.3 1-.4 1.2 2.2 1.6 1 .7 0 0 .3-.9.5-1.7.3-1-.1.3-.2.6-.3 1 .9.6 2.3 1.6 4.1 3 2.3-.5 2.5-.4 2.6-.4zM427 392.4c-1.9 2.6-.7.9 0 0 1.1-1.6.3-.4 0 0zm-4.7 5.9c-.2.3-1 1.3-1.7 2.2.5-.6.9-1.2 1.7-2.2-.2.2.1-.2 1-1.4-.1.2-.9 1.2-1 1.4zM401 421.7l1.8-1.8c1.4-1.4 1.3-1.4 1.3-1.3l-2.5 2.5-1.2 1.2c.9-.8.6-.6.6-.6zm48.9-102.4c0 2.3 0-1.2 0 0v-2.6 2.6zm-103.5 85.9c-1.6.1 3.5-.3-.7.1-1.4.1-3.9.3.7-.1zm21.1-28.3v-.2.2zm-48.7-31.8c.5-1.8.4-1.2 1.1-3.6.1-.4-.4 1.5-.2.8-.3.8-.2.7-.3.9-.3 1.1-.5 1.6-.5 1.8-.9 3-.5 1.4-.1.1zm23.9-13.8c1.6.9 1.7 1 1.6.9-1.6-.9-2.2-1.3-2.8-1.6h-1.4 1.4c.7.4 1 .6 1.2.7zm23.8 12.1c1.9.6 4.3 1.5.1.1.8.3-.1-.1-.1-.1zm-20.4 11c-1.3.1-3.8 0 0 0-.3 0-1 0 0 0zm3.7 0h-1 1zm102.7-7.5v0zM387 373.2c.1 3.7 0 .8 0 1-.1-2.5-.1-2.2 0-1zm-.2 4.2c-.1-3 0-1 0-2.7v-.8c.2 9.1 0 3.2 0 4.1v3.7c0-.8 0-.8-.1-2.3v.2c-.1-2.9 0-2.2 0-1.7 0-1.7 0-2.2-.1-4.4 0-.6 0 1.8.1 2.6 0-1.4 0-2.4-.1-4.5 0 .6.1 2.6.1 3.5v-2.7c-.1-2.6 0-.5-.1-4.2 0-.6.1 2.2.1 1.6 0-1.3 0-1.6-.1-2.5.1 3.4.2 11.1.2 12.6 0 1.8 0 1.7.1 2.3.1 3.1 0 1 0 1.9.2-.1.6-.3 1.3-.7-.5.3-.6.3-1.4.7v-.8.8c.9-.5 2.1-1.1.1 0 .2-.1 1.9-1 2.2-1.1-4.6 2.4 2.2-1.1-1.2.7 3.4-1.7 2.8-1.4 1.7-.8 2.9-1.5 4-2 3.7-1.9-.6.3-1.8 1-3.3 1.8.8-.4 1.9-1 2.5-1.3.2-.1 2.8-1.5 1.5-.8 1.4-.7 2-1 2.3-1.2.3-.1.2-.1.2-.1s-.7.3-.8.4c-1.2.7 7.9-4-1.8 1 .1 0-.3.1-1.7.9 1.3-.7-2.3 1.2 2.5-1.3.4-.2-.9.5-2.3 1.2-1.8.9-3.7 1.9-3.2 1.7-1.8.9.3-.2-2.4 1.2-.2.1 1.8-1 1.4-.8l-1.8.9v-.5c-.1-5.1-.1-5.8 0-4.2-.1-4-.1-2.9-.1-6.1.1 1.7 0-3.8 0-2.1v3.6c.1 2.6 0-.6-.1-3.6v-1 1.8c.1 3.7 0-1 0-2.8 0-1.4.1 3 .1 2.6 0-1.8 0-2.6.1.5 0-1.2 0-1.9-.1-4.4 0-.6 0 .2.1 2.6-.1-4.5 0-.9 0 .7 0-.4 0-2.2-.1-2.7V368.9v-1c0 2.2.1 4.7.2 8 0-.3-.1-3.8-.1-5.3 0-.9.1 2.4.1 2.6-.1-3.8-.2-9.9-.1-3.7v-1.7c0 2.2.1 2.7.1 4.4v.7c0-2.1-.1-4.7-.2-7.9 0 1.3.1 2 .1 3.4v1.8c0 .3.1 3.3.1 4.4 0-.6 0-1.3-.1-2.7v.8c0 1.7 0 1.1.1 3.5-.1-2.7-.1-7.1-.2-8.1v-1.7c-.1-7.6.1 2.7 0-3.2 0 1.9.1 2.8 0 .8.1 4.5.1 6 .2 8 0-1.8 0-2.3-.1-3.5 0-.6-.1-4.4 0 .3 0-.3.1 3.1.1 3.2.1 2.8.1 2.3.1 4.4 0-1-.1-5-.1-6.2.1 2.5 0-1.8.1 1.6v-1.7c0-2.2.1 2.6.1 1.7v-1.7c-.1-2.6 0 .8 0-.1v-.9-2.7c0 1.7.1 4.3 0 .8.1 1.6.1 2.6.1 3.4 0 .5 0 .5.1.5l.1 2.6c-.1-3.5 0-1.6 0-2.1.1 6.7 0 1.9 0 3.1-.2.5-.2 4.1-.2 2.7zm0-6.3c.1 6.7 0 1.1 0 3.1-.1-5.6 0-2.7 0-3.1zm-26.1-10.4c-1.4-.9-1.7-1.1-1.9-1.3-.1 0 .2.1-.4-.3.9.6 1.9 1.3 2.4 1.6.2.4.2.5 0 0 0 .1 0 0-.1 0zm26 20.4c0 2 .1 2.6 0 2.4v-2.4zm-19.4 5v-.1.1zm19.1-16.2c0-.3-.1-4.9-.1-6.2 0 .9.1 3.6.1 6.2zm0-.8v.9c-.1-2.5 0-2.3-.1-4.4 0 .3.1 2.4.1 3.5zm-20.1 1.4c-.9-1.8-1.4-2.7.4.7.3.6-.5-.7-.4-.7zm1.1 8.9c0 .4 0 1.7 0 0 0 .9 0 5.5 0 0zm31.6-1.8c2.7-1.4 1.3-.6.9-.4-3 1.5-.7.3-.9.4zm-31.6 9.7v-2.8 2.8zm69.9-11.6c-.9 1.5-.9 1.5-1.9 3 .2-.3 1.5-2.3.9-1.5 1.4-2.1.9-1.4 1-1.5zm.8-1.4c-.2.3-1.1 1.8-.6.9 2-3.1.8-1.1.6-.9zM426 392.8c1.1-1.5-.5.7.4-.6 1.9-2.7 1.5-2.1-.4.6zm10.7-16.2c-1.1 1.8-2 3.1-1 1.6.7-1.1 1.8-2.9 1-1.6zm.3-.6c-1 1.6-1.7 2.8-1 1.6 1-1.6.2-.4.5-.8 1.1-1.6.2-.3.5-.8 1.4-2.2.4-.5 0 0zm-3.1 4.8c-2.4 3.7 0-.1-1 1.6 1.9-2.9.3-.4 1-1.6zm1.9-2.9c-1 1.5-.6.9 0 0 1-1.7-.3.5 1.3-2.2-.6 1-.9 1.5-1.3 2.2zm-38 .6l5-2.5c-1.5.8-.2.1-3.2 1.6.4-.2-1.5.7-1.8.9zm36 2.4c-.7 1-2.9 4.5-.1.1-1.2 1.9.1 0 .1-.1zm3.7-5.9c-1.1 1.9-2.2 3.5-1.4 2.3.8-1.3 1.6-2.6 1.4-2.3zm-1.9 3.1c-.8 1.2-.3.5-.6.9 2.4-3.9-.4.7 2.4-3.9.2-.3-.3.5-.4.7-.4.8-1.7 2.8-1.4 2.3zm-68 1.3v-1.8 1.8zm68.3-1.8c-.7 1.1-.7 1.1-1.7 2.5-2 3.2.5-.7-.9 1.4-1.6 2.5-.8 1.2-1 1.6 1.7-2.7 2.4-3.7 4.3-6.7-.2.3 1.1-1.9-.7 1.2zm-48.4 6.3c3.9-2 3.2-1.7 3.4-1.7-4.1 2.1-3.5 1.8-3.4 1.7zm6.5-3.3c3.9-2 .3-.1.8-.4-.5.3-.8.4-.8.4zm39.1 1.2c-1.8 2.8-.7 1-1 1.5 1.4-2.1.5-.8 1-1.5zm1.3-2.2c-1.2 2-1.6 2.5-1.9 3 .4-.6 1.1-1.6 1.9-3zm-5.5 8.4c-.5.7-1.7 2.5-.5.8-.1.1-.6.9-1 1.5.5-.7.7-1.1 2-2.9.3-.7-.9 1.1-.5.6zm.4-.7c-.4.7-.9 1.3-1 1.5-1.1 1.6-.3.4-.5.8.8-1.3 1.7-2.6 1.5-2.3zm-4.8 6.8c-1.8 2.5.1-.1-1.1 1.5 2-2.7.7-1 1.1-1.5zm-18.9 23.2c.3-.4.7-.7 1.3-1.4.7-.7 1.7-1.8 3.4-3.7-1.8 1.9-2.1 2.3-4.7 5.1zm16.3-19.6c-.8 1.1-1.6 2.1-2.1 2.8-2.3 3-.3.4-.6.8 1.7-2.3 1.6-2.2 2.7-3.6zm-54-15.6v-3.5 3.5zm41.7 30.7c-.6.7-1.1 1.2-1.4 1.6l-.4.4-.1.1c.2-.1.6-.6 1.9-2.1-.5.6 1.3-1.5 0 0zm13.2-16.4c-1.6 2.1-1.3 1.7-.6.8 1-1.4 0 0 .6-.8zM367.9 381v-1c.1 1.8 0 2.5 0 1zm49.4 22.5c-1.6 2-2 2.5-1.1 1.4.8-1 1.2-1.5 1.1-1.4zm-4.6 5.7c.1-.2-.4.4-.9 1-.5.5-.9 1-.5.5 1.7-2 1.7-2 3.4-4.1-1 1.2 0 0-2.2 2.7 2.1-2.5.3-.2.2-.1zm.5-.7c.9-1.1 2.3-2.8 2.8-3.4-2.9 3.6 0 .1-2.8 3.4.5-.6.2-.1 0 0zM401.8 421c-1.8 1.8-.5.5 0 0 1.8-1.8.5-.5 0 0zm-33.6-29.8v-2.7V391.9c-.1.2-.1.2 0 0v-.7zm44.7 17.4c-2 2.3.3-.2-2.4 2.7.4-.4 1.6-1.8-.1.1 1-1.1 1.9-2.2 2.9-3.4-.7.9.7-.8-.4.6zM368.2 390V391.9c-.3.6-.4.9-.5 1 .1-.1.2-.4.5-1V390zm43.4 20.1c-2.9 3.3-2.8 3.1-.7.8-2.8 3.1-4.9 5.4-2.5 2.8 1.7-1.9-.3.5 4.2-4.7-.9 1 .1-.2-1 1.1zm7.2-8.8c-1.6 2-1.3 1.7-.6.7 1.5-1.9 2.1-2.8 2.2-2.8-.8 1-1.5 2-1.6 2.1zm.9-1.3c-2 2.6.1-.1-.6.8.9-1.3 1.1-1.5 2.1-2.8-.4.5-.7.9-1.5 2zm-63.9 3c1.6-.1 1.6-.1 1-.1-3.5.4-.2.1-1 .1zm47.9 15.8l-.7.7c1.4-1.4 1.3-1.4 1.2-1.2 2.4-2.7-.3.2-.5.5zm8.7-9.8c-.6.7-1.1 1.4-1.7 2h-.1c1.8-1.9 1.3-1.4 1.8-2zm-58.3-5.8c1.5-.1 2-.2 1.8-.1-2 .1-3.6.3-1.8.1zm11.3-5.3c.7-1.5-.3.6-.4.7-1.5 3.2-.3.6.4-.7zm1.6-3.3c1-2 .8-1.6.8-1.7-1.2 2.6-1.4 3-.8 1.7zm-1.1 2.3c.1-.2.4-.7.4-.8 1-2.1.3-.6 1.5-3.1-.1.1 0-.1.1-.3.1-.3.3-.6.4-.8 0-.1 0-.1 0 0v.1c-.4.8-.7 1.5-.8 1.7l-1.6 3.2zm36.1 23.4l.6-.6c1.2-1.1 2.1-2.2 2.4-2.5 1-1.1-1.8 2-3 3.1l-.7.7.7-.7zm-52.7-16.6c2.9-.3 4-.4 0 0-1.1.1-1.1.1 0 0zm16.3-6.1c1.2-2.5 1-2.1 2-4-.3.5-.8 1.7-1.5 3.2-.4.6-.6 1-.5.8zm41.1 17.8c-.5.5-1 1.1-1.8 1.9.2-.2 1-1.1 1.2-1.3.6-.7.6-.7 1.8-1.9-.4.4-.7.8 0 0-.1.1-1.2 1.3-1.2 1.3zm-2.5 2.6c2.3-2.5 2.5-2.6 4.2-4.5-1.1 1.3-4.1 4.4-4.2 4.5zm-45.8-15.1c1-.1 1.5-.1 1.7-.2 1.9-.2-1.8.2.1 0-1.4.2-1.5.2-1.8.2-2.1.2 2.7-.2 0 0zm64.7-7.8c-2.6 3.5-1.8 2.3-3 3.8 3.4-4.4 2.4-3 3-3.8zm-3.8 5.1c-.5.7-1.1 1.4-1.6 2.1-.1.1-.1.1.5-.6 1.4-1.8 1.1-1.5 1.1-1.5zm-1.7 2.1c-.5.7-1.1 1.4-1.6 2.1.2-.3.2-.3 1.6-2.1zm-9 10.9c-.7.7-.4.3 0 0-2.7 3.1 1.5-1.7 1.1-1.3.8-.9.5-.6.6-.7-.8.9-1.6 1.8-1.7 2zm11.5-14.1c-1.8 2.4-1 1.3-1.7 2.2 2-2.7.7-1.1 1.7-2.2zm-87-5.2c.7 1.2 1.2 2.3.5.9-1-1.8-.2-.4-.5-.9zm94.3-5.6c3.4-4.9 5.4-8.2 5-7.4.6-1 .6-1 .9-1.4 1.4-2.2.5-.7 1.5-2.3-.2.3-1.2 1.9-1.9 3 .5-.8.6-1 1.1-1.7-1.6 2.6-.1.2-1.8 2.9.5-.7 1-1.6 1.9-3-.3.5-1.6 2.6-.8 1.3 1.1-1.7-.2.4 1.4-2.2-.7 1.1-.3.4.6-.9-1.1 1.7-1.8 2.9-2.4 3.7.2-.3.7-1.1 1.9-3 .5-.8-.8 1.3-1.8 2.9-3.6 5.5-.1.1-2.7 4 1.1-1.7.7-1.1 1.1-1.8-.8 1.3-.3.5-.9 1.4-1.5 2.3-1 1.5.4-.7-1 1.6-1.4 2.2-3.5 5.2zm-105.6 6.1c.3-2 .4-3 .3-1.8-.2 1.6-.3 2-.3 1.8zm-.9 6.1c.5-3.3.5-3.4 0 0zm44.4-1.5c.4-.7.6-1.2.5-1-.2.3-.6 1.3-1.7 3.5 1-2.1.9-1.9 1.2-2.5zm-43.2-6.4c.5-3.6 0 .1.2-1.1-.2 1.2-.4 2.9-.8 5.3 0-.1.5-3.3.2-1.6.2-1.3.5-3.4.4-2.6zm116.7-21.9c-1 1.7-.2.4-.5.9 2.2-3.8.6-1.1.5-.9zm-95.1 33.8c.8-.1 2-.2 3.5-.3.7-.1-2.4.2-1.7.2-2.2.2-1.7.1-1.8.1zm8-.6l2.6-.2c2.1-.2-.5.1-1.6.2-2.2.1.8-.2-1 0zm1.9-.2c2.8-.2-2.3.2.3 0-2.2.2-1.9.2-5.3.5 2.8-.3 4.4-.4.6-.1.3 0 1.5-.1 3.5-.3-.9.1-1.3.1-3.5.3.6 0 3.7-.3 4.4-.4zm89-39.6c-2 3.4.2-.3-.5.8 1.1-1.9.8-1.4.5-.8zm7.9-22c0 4-.1 1.6-.1 1.4v-.7c.1-8.7.1-2.3.1-3.3v2.6zm-21.9 44.6c-.8 1.1-.6.9-1.1 1.5.9-1.3 1-1.5 2-2.9.5-.8-1.4 2.1-.9 1.4zm-79 17.4c3.4-.3 3.3-.3 3.6-.3-1.6.2-1.9.2-3.6.3 2.1-.1-.3.1 0 0zm84.1-25.3c-1.1 1.8-1.8 2.8-3.4 5.2.3-.5 1.4-2.1 2.3-3.5 2.1-3.4.3-.4 1.1-1.7zm-9.1 13.4c-1.7 2.3-2.7 3.6-.5.5-.2.2-1 1.3-1 1.5.2-.3.6-.8 1-1.4 1.6-2.2.9-1.2 1.1-1.5.7-1 1.4-2 1.5-2.2 1.1-1.6 0 .2 2.9-4-.5.8-1.1 1.7-2.4 3.5.4-.6 1.6-2.3 2.5-3.6.4-.6-1.9 2.8-.4.7-.4.6-.7 1.1-2 2.9.8-1.1 1.4-2.1 1.1-1.6 1.7-2.4.7-1.1.9-1.4 1.7-2.6 1.1-1.7.1-.1-1.9 2.7-3 4.5-3.5 5.1-1.8 2.6 1.5-2.2-.7.9-1.2 1.7.8-1-2.3 3.3-2.4 3.2.6-.8-.3.3.6-1 1.3-1.9 2-2.9zm18.1-28.5c-1.2 2.1-2.1 3.7-1.3 2.3 1-1.9 1.1-1.9 1.3-2.3zm-2.7 4.7c.4-.6.4-.8.9-1.5-.1.1-.7 1.1-1.6 2.5 4.5-7.8 3.6-6.2 4.2-7.1-1.2 2-2.9 5.1-3.5 6.1zm-7 11.3c-1.1 1.7-1.3 2-2.4 3.7 1.3-2 .2-.3 1.8-2.9-1.3 2.2 1.6-2.3.6-.8zm17.3-32v-.9-1.8-.8c0-3.9 0-3.2.1-5.5v7.6c0-.8-.1 5.9-.1-.3 0-1.8-.1 2.2 0 1.7zm-14.6 27.7c-.1.2-1.8 2.8-1.9 3-1.4 2.3.2-.3.4-.7 1.2-1.7.7-.9 1.5-2.3zm-1.9 3c-1.2 1.9-.6.8 1.7-2.8-1.9 3.1.2-.2-1.7 2.8zm16.6-65.2v0zm-.1.1v-1.7-1.8c.1.3.1 1.5 0 3.5zm-16.7 65.4c-1.3 2-.1.1-1.2 1.8 3.7-5.8 1.2-1.8 2.1-3.3-1.4 2.3-.8 1.3-.9 1.5zm16.7-71.1v-1.8l2.9.5c0 .1-.1.4-.2.6.1-.2.2-.4.2-.6l-2.9-.5v0l2.9.5c-.4 1.1-.7 1.9-1.1 3 .1-.4.8-2.2.9-2.4-.1.4-.8 2.2-.9 2.5-.6 1.6-.7 1.9-.2.3.3-.8 1.3-3.6.7-1.7.3-.7.4-1.2.6-1.6l-2.8-.5c0 2.3 0 1.2 0 0l2.8.5-.3.9c.1-.2.2-.5.3-.9l-2.8-.5V318c0-2.9-.1 3.4-.1 1.5V316v3.6-3.5V313.5 310v-2.8.4zm-21.8 78.8c1.5-2.3 1.5-2.3 2.4-3.7-.5.8-.2.3-.4.6 2.3-3.5 1.7-2.5.1-.1-2.1 3.2.4-.5-2.1 3.2zm-2 2.9c-1.2 1.6-.3.4 0 0 1.7-2.5.6-.9 0 0zm4.4-6.5c-1.8 2.7-2.1 3.3-2 3 1.3-2 1-1.6 2-3 1.2-2 .2-.3 3.1-5-.7 1.1.5-.7 1.5-2.4-.5.7-1.2 1.9-1.4 2.2-1.1 1.7-.7 1.2-.5.8-1.7 2.7-2.5 3.9-2.7 4.4zm-.8 1c-1.1 1.7-.5.8.9-1.4.4-.6.5-.8.5-.8-.7 1.1-1.3 2.1-1.4 2.2zm-109.6 23.4c.3-1.8.2-1.6.2-1-.1.6-.2 1.4-.2 1.6v0c-.1-.2-.1-.4 0-.6 0-.1 0-.1 0 0zm1.6-10.9c.2-1.4-.3 2 .3-2-.1.4-.4 2.6-.5 3.4-.2 1.6-.4 2.9-.5 3.5-.3 2.3-.3 2.3-.4 2.8.2-1.1.5-3.2.6-4.4.2-.9.2-1.4.5-3.3zm118.4-29.7c-1 1.7-.2.4-.5.8 1.2-2 1.1-1.8.5-.8zm-8.7 14.3c-1.1 1.6-.2.3-.6.8 2.7-4.2.2-.2.6-.8zm5.2-8.5c-.8 1.3-1.7 2.8-1.4 2.3 2.2-3.7.7-1.2 1.4-2.3zm-82.6 31.9c1.3-.1 1.3-.1 4.5-.4-1.4.1-9.6.8-13.1 1.1 2.3-.1 2.8-.1 8.6-.7zm89.4-79.2c1.8-2.1 1.9-2.1 1.8-2-1 1.2-1.2 1.4-2.3 2.6-.1.2-.2.2.5-.6zm-79.1 77.3c2-4.1 1.8-3.7 2.6-5.3 1-2 1.7-3.5 2.4-4.8v-8.8 8.9c-1.2 2.5-1.9 4-3.9 7.9-.1.3-.2.4-.3.5l-1.5 3c-.4 0-.9.1-1.5.1.7-.1 1.1-.1 1.5-.1l.7-1.4zm19.1-43.8c0 1.9 0 .7 0 0v-1.7c-.1 1.4 0 1.5 0 1.7zm-14.1 32.6v1c-.2.3-.3.5-.2.4l-2.1 4.2c.7-1.4 1-2.1 2.3-4.6v-1zM451 314c1.1-3.1.8-2.1-.3.8-.6 1.8.1-.2.3-.8zm-7.6 12c-1.8 2.1-2.5 2.9-2.9 3.3 1.9-2.1 1.8-2 2.9-3.3zM367.5 388.1V387.5v-3.8-.8 5.2z"/><path fill-rule="evenodd" clip-rule="evenodd" fill="#492705" d="M407.8 415.4s-1.7 1.8-1.2 1.3c1-1.1 1.1-1.2-1.3 1.4.4-.4.9-1 1.8-1.9-2.1 2.1-.6.6-4 4.1l-.7.7c1.7-1.7.7-.8-3.7 3.5 1-.9-1.2 1.2 1.5-1.4-2.8 2.7-.4.4.7-.7-.6.6-1.3 1.2-1.9 1.8.9-.7 2.6-2.3 2.1-1.6 2.2-2.2-.7.8 4-4-1.3 1.4-1.8 1.9-.5.5-3.2 3.3-.5.5-3.1 3.1 1.4-1.4-1.5 1.6.8-.7.6-.6-1.2 1.2 1.7-1.8-.7.7 1.1-1-1.7 1.7l.8-.8 1.3-1.3c1-1.1 1.5-1.6 1.8-1.9 1.3-1.4-1.3 1.4.1-.1.1-.1.2-.2 1.2-1.3.5-.5-1 1.1-.5.6 2-2.2 1-1 1.7-1.9-1.9 2.1-2.2 2.3-.8.8 1.1-1.1 2.5-2.8.7-.7 1.6-1.8 1.2-1.3 2.3-2.6-.2.3-1.5 1.7-1.8 2.1 1.6-1.8 2.2-2.6 3.5-4-.3.3-2.1 2.4-2.4 2.7 1.1-1.2 2-2.2 2.3-2.7-1.7 2 .7-.9 1-1.3-3.3 3.9.3-.3-1.8 2.1.8-.9-1.6 1.8-2.3 2.6 1.7-2 .7-.8 1.7-1.9.6-.7.7-.8 1.2-1.3.1-.1 3.1-3.7.6-.7.5-.6 1.1-1.4 1.5-1.9-.3.3-.6.7-1.1 1.3-.2.3 2-2.5-.6.7.4-.4 2.5-3 3.3-4-2 2.4-.6.7-2.3 2.8-.2.3.8-1-1.1 1.3.3-.4.3-.4-.7.8 1.1-1.3 1.2-1.5 2.3-2.7-.8.9-.7.9 1.2-1.4.7-.8-.6.7-2.4 2.8 1.8-2.2.5-.6-.6.7.9-1.1 2.1-2.5 3.4-4.1-.6.7-.7.8 1-1.3.2-.2 1.2-1.5 1.7-2.1-1.4 1.8-.8.9.5-.6-1.9 2.3-3.5 4.4-1.3 1.6-2.2 2.8-1.6 2-2.4 2.9-2.5 3 .1 0-1.6 2-1.8 2.2-3.7 4.2-1.2 1.5 1.3-1.5-.2.2 1.7-2.1-1.9 2.3-5.7 6.6-6.4 7.4zm2.3-2.2c-.6.7-1.2 1.3-1.7 2-.7.8.9-1 1.1-1.3.7-.9.5-.6.6-.7zm2.2-2.6c-2 2.2-4.8 5.4-2.5 2.8.8-.9 1.6-1.8 2.3-2.7.5-.4-1.6 1.9.2-.1-.7.7-1.3 1.4-1.8 2.1-1.4 1.6 2.7-3.2 1.8-2.1zm-1.1 1.1c-1.6 1.8-1.8 2 .5-.6-.2.2.6-.7-.5.6zm3.9-4.7c-1.5 1.7-1.2 1.4-1.2 1.4 2.1-2.4 1.7-1.9 1.2-1.4zm-3.4 4.1c-.8.9-1 1.2-1.2 1.4 2.1-2.5 2-2.4 1.2-1.4zm4.5-5.3c-1.5 1.8-1.9 2.2-1.7 2.1 1.4-1.8 1.8-2.3 1.7-2.1zm-4.6 5.4c-1.9 2.2-1.8 2.1-1 1.1.4-.5 1-1.1 1.6-1.8.6-.7 1.2-1.4 1.6-1.9-1.7 2-2.4 2.8-2.2 2.6zm-2.4 2.7c-.6.7-.3.3-.7.7 2.5-2.8 1.6-1.8.7-.7zm6.2-7.3c-1.4 1.7-2.7 3.2-3.4 4.1.3-.3.5-.6 1-1.2 2.2-2.6 2.7-3.2 2.4-2.9zM339.5 330.6h2.1c.6.3.8.5 0 0h-2-.1zM438.9 376.2c-.6 1 .7-1.2-.6.9 1.6-2.6 1.2-1.9.6-.9zM380.5 348.2c1.1.4 2.9 1 2.6.9-2.2-.8-1.8-.6-4.1-1.4l1.5.5zM397.3 377c.5-.3 1.7-.9 2.3-1.2 1.8-.9.9-.4-1.5.8l2.4-1.2c-1.1.5-2.5 1.2-3.2 1.6zM429.1 337c1.7-1.9 2.2-2.5 2.9-3.4-1.4 1.8.4-.3-2.9 3.4zM445.9 317.8s0-.1 0 0c.2-.4.4-1 .8-2.2-.2.7-.4 1.3-.8 2.2-.1.1-.2.3-.3.3l-.1.1.4-.4c.1-.3.2-.5.3-.6v.1c-.1 0-.2.2-.3.5 0-.1 0 0 0 0zM396 428.9c.1-.1 1.2-1.1 2-1.8.2-.2-.8.8-1.6 1.5s-1.3 1.2-.1.1c1.5-1.3 0 0 1.3-1.2s-.6.6.7-.7c-2.3 2.2-1.6 1.5-4 3.6-.9.7.3-.3-.2.1 2-1.7.9-.8 1.9-1.6-2.7 2.3-2.3 2 0 0-.8.7-1.9 1.6-2.8 2.4 1.5-1.3-1.2 1 1.9-1.7l.6-.6c-.7.6-2.2 1.9-2.7 2.4 2.2-1.9 1.8-1.6 2.6-2.3 4-3.6 1.2-1 2.9-2.6-.6.6-1.6 1.6-2.5 2.4zM453 346.8v-.7c-.1-2.7-.1.6 0 .7zM441.5 322.8c1.1-1.2-1 1.2-.5.6l-1.2 1.4c.6-.7 1.5-1.7 1.7-2zM417.5 350.7c.5-.6.5-.6.1-.1-.5.5-1 1.1-.1.1zM442.8 368c-1 1.8-1.2 2-1 1.6.7-1.1.7-.9 1-1.6zM429.9 388.5c-1 1.4-.3.5-2.1 3 1.2-1.6 3.2-4.6 2.1-3zM397.8 426.7c-1.3 1.2-2.4 2.2-2.9 2.6-.5.5-.5.4.4-.3-2.7 2.3-1.9 1.7-4.2 3.6 1.1-.8 3.9-3.4 2.8-2.3.2-.2 3-2.6 2.7-2.3.8-.9.2-.4 1.2-1.3zM366.8 377.7c0-3.9.1 1.6.1-4.8V376.6c-.1 3.3-.1 1.2-.1 1.1zM439.8 372.7c1.3-2.2.5-.8.4-.7.7-1.2 0 0 1.4-2.3.1-.2.1-.2-1.3 2.2-.1.1.2-.3.4-.8-.3.6-.8 1.4-1.4 2.3.2-.1.5-.6.5-.7z"/><path fill-rule="evenodd" clip-rule="evenodd" fill="#492705" d="M439.1 373.8c.2-.3.2-.3 1.3-2.2-.5.8.8-1.3 1-1.6.4-.7.3-.6.4-.7 2.5-4.3.6-1-.7 1.3-.9 1.5-1.2 2.1-1.8 3.1 2.8-4.9.8-1.6-.2.1zM405.8 418.5l-.7.7c.9-1 1.5-1.6 2.4-2.6-3 3.1 2.4-2.7-2.4 2.4 3.9-4.2-2.9 3.1 1-1.2-1.8 2-1.1 1.3-3.1 3.2 2.3-2.3.5-.4-2.9 3 1.7-1.7.8-.7-.2.2-1 .9-2.1 1.9-.5.4-1.5 1.4-2.3 2.1-2.6 2.4.9-.9 2-1.9 3.2-3-.3.3-.8.8-1.4 1.3.8-.7 1.8-1.7 1.9-1.8-3.7 3.5-1 .9-.7.7-2.3 2.1-1.9 1.9-4.4 4.1 2.2-2 .4-.3.7-.6-.8.7-1.8 1.6-2 1.7l.7-.6c.3-.3 1-.9 2-1.8-1 .9 1.1-.9-1.8 1.7 3.7-3.3 1.9-1.8 1.4-1.2a118.37 118.37 0 0 1 0 0c.2-.1-1.3 1.2-2 1.8 1.3-1.1.1-.1 1.4-1.2.2-.2.6-.5 1.9-1.8-1.6 1.5 1.4-1.3.7-.7 1.7-1.6 3.5-3.4 4.5-4.3-3.2 3.2 1.3-1.3 1.4-1.3-.7.7-1.5 1.5-2.3 2.4-.9.9-1.9 2-3.3 3.2.4-.4.1-.1.7-.6l1-1 1.5-1.5c1.4-1.4.8-.8.2-.1l1.9-1.9c2-2.1-1.5 1.5 1.8-2zm-1.7 1.7l-1.9 1.9-.7.7 2.6-2.6zM366.9 373.6v-.6V373.6zM441.1 370.3s1.2-2.1.9-1.6c-.9 1.5-1.9 3.2-2.2 3.8-.5.8-.3.5-.9 1.5 2.3-3.8.6-1 3.5-6-.2.4-.5 1-1.3 2.3z"/><path fill-rule="evenodd" clip-rule="evenodd" fill="#492705" d="M441.1 370.4c-1.5 2.5-.7 1.1 0 0 0 0 0-.1-.5.8.4-.7 1.7-2.9 1.8-3.1-.9 1.5-1.2 2-1.3 2.3zM366.9 387.3v-.9-1.9 2.8zM367 388.9v2.7c-.3.7-.6 1.3-1 2 .6-1.2.8-1.5.8-1.6 0-.1 0 0 .1-.1l-1.3 2.6c-.1.1 0 0 .2-.5s.6-1.2 1.1-2.4v-.2-.3-.4c0-3.4 0-3.3.1-3v1.2zM440.7 370.8c-.6 1.1-.5.9-1.8 3 .9-1.5.9-1.4 1.8-3 0 0-2.6 4.3-1.9 3.1 1-1.7.7-1.1 1.4-2.3-1.1 1.8-1.1 1.9-.1.1 1.3-2.2.6-1 .1-.1.8-1.4 1.3-2.1 2.3-3.8-.3.6-.5.8-.4.7-.5.8-.4.6-.5.8-.2.2-2.4 4-.9 1.5zM367 387.6V384v3.6zM367.1 380.4v-1 1z"/><path fill-rule="evenodd" clip-rule="evenodd" fill="#492705" d="M439.6 372.6c-.2.2.1-.1.9-1.5-.4.7-.7 1.2-1.8 3 1.5-2.4.8-1.3 2.2-3.8-.8 1.4.8-1.3-1.3 2.3z"/><path fill-rule="evenodd" clip-rule="evenodd" fill="#492705" d="M439.4 372.8c-.4.7.8-1.3 0 0-.5.9-.7 1.1-1.3 2.2.6-1 1-1.5 2.7-4.5-.3.4-.6 1-1.4 2.3zM411.9 366.1c-.7 2.6-.9 3.1-.5 1.8 0 .1.8-2.7.5-1.8zM411 369.5c.7-2.4 0 0 .1-.1-.7 2.1.2-1.1-.1.1zM444 364.7c-.7 1.2-.6 1.1-1.7 3-.2.4.1-.2-.6.9 1.1-1.8 1.2-2.1 2.2-3.9h.1c-.5.8-.4.7-.5.9-1.5 2.7-.8 1.5.5-.9zM430.5 386.7c-.7 1 .7-1-.1.1 1.3-2 .7-1.1.1-.1zM408.2 415.4c.5-.5-2.1 2.2-1.2 1.2-1.7 1.8-1.5 1.7-3.7 3.9 2.1-2 2.7-2.7 4.9-5.1zM434.2 380.9c.9-1.4.8-1.3 1.3-2.1l-.9 1.5c1.7-2.7 1.8-2.8-.4.6zM416.1 406.2c-1.2 1.4-1.5 1.8-2.3 2.7.3-.3 3.9-4.7 2.3-2.7.5-.6.9-1.1 1.6-2-.6.7-1.4 1.7-1.6 2z"/><path fill-rule="evenodd" clip-rule="evenodd" fill="#492705" d="M435.5 378.9c-2 3.1.1-.1.4-.7.4-.6.8-1.2 1.4-2.3-1.1 1.8 1-1.7 1.3-2.2-.1.2-.9 1.4-.9 1.5-.2.4.4-.6 1.8-3-.7 1.2-.6.9.1-.1-.5.7-.9 1.5-1.4 2.3.2-.3 0 .1-.4.7 1.2-1.9 1.6-2.6 2.3-3.8 1-1.7-.2.3 1.3-2.3-.4.7-.9 1.5-1.3 2.2-.7 1.1-1.6 2.6-3.2 5.3.8-1.4 0-.1 0 .1-1.9 3.1-1.4 2.2-1.4 2.3zM413.8 409c.7-.8 1.2-1.5.5-.6 1-1.2 1.4-1.7 1.7-2 0-.2-.4.3-2.2 2.6z"/><path fill-rule="evenodd" clip-rule="evenodd" fill="#492705" d="M437.2 376.1c-1.7 2.7.9-1.4 1.8-3-.3.5-.8 1.3-.9 1.5 3.1-5.1-.7 1-.9 1.5zM347.1 403c1-.1-.7.1-.7.1-1.9.1.2-.1.7-.1zM386.4 378.3v-.9.9c0 .8.1 2 .1 3.4 0 .1-.1-3.6 0-.8-.1-.4-.1-1.1-.1-2.6zM386.3 378.8c0 1 0 .5 0 0v0zM348.8 402.9c2.9-.2.8-.1.1 0-1.6.2.9 0-.1 0zM343.3 403.7c.7-.1.8-.1.8-.1 1.2-.1 3-.2 3.6-.3-2.8.2-.8 0-4.4.4z"/><path fill-rule="evenodd" clip-rule="evenodd" fill="#492705" d="M347.3 403.4c-2.3.2 1.7-.2-1.8.1 3-.3 3.6-.3 1.4-.2h-.4c-.2 0-.5.1-.9.1-.7.1-1.5.1-2.1.2-2.6.2 3.7-.3-.2 0-.3 0-2 .2-2.7.2h.1c-.2 0-.4 0-1.1.1-.1-.2-.2-.4-.4-.7-.4-.8-.2-.3-.1-.1.1.1.1.1 0-.1s-.4-.7-.9-1.6c.3.7.4.9.4 1 0 .1-.1-.1-.1 0 .5.8.6 1.1.9 1.6.2 0 .6-.1 1.1-.1.2 0 .1 0 1-.1.2 0 .1 0 .9-.1-.8.1 1.2-.1 2.7-.2-2.9.3-.9.1-.1 0-1.8.2-4.6.4-5.5.5 1.7-.2.9-.1.4-.1h-.2c.3 0 .9-.1 2.3-.2 2.4-.2-2.8.3 3.8-.3 0 .2-2.2.3 1.5 0-.8.1-1.7.2-2.6.2 1.5-.1 1.6-.1 2.6-.2zm-3.8.3c2.8-.2 3.3-.3 1.8-.1-1.5.1-1.9.1-1.8.1zM367.8 385.3v-1 1zM363.8 400.4c.6-1.3 1.9-3.9.9-1.7-.6 1.1-.5.9-.9 1.7zM359.3 402.4c.3 0 2.3-.2 3.7-.3-.1.3 1.3-2.6 0 .1-.4 0-1 .1-1.8.2.4 0 1.2-.1 1.4-.1-.2-.1-.6-.1-3.3.1zM339.3 404.1c0 .1.1.1.1.1 1.1-.1 1.6-.1 1.9-.2 1.4-.1 1.6-.1 1.3-.1-.4 0-1.3.1-2.2.2-2.1.2.4-.1-1 .1l-.1-.1zM404.5 418.1c.2-.2-.3.4-1 1.1l-2 2c-1 1 2-2 3-3.1zM363.5 401.4c.1-.2.3-.6.4-.9 1.4-2.9.8-1.7 1.2-2.5-.5 1.1-.3.7-1.6 3.4z"/><path fill-rule="evenodd" clip-rule="evenodd" fill="#492705" d="M359.5 402.6c2.4-.2 1-.1 3.6-.3.1-.1.2-.3.3-.6l-.3.6c-2.2.2-2.9.2-3.3.3h-.3zM354.4 403.1c-1.5.1-1.6.1-1.7.2-2 .2-2.1.2-.9.1 1.8-.3 6.3-.6 2.6-.3zM400.2 422.3l-.1.1 3.1-3.1c2.2-2.3.5-.5.7-.7l-3.7 3.7zM324.1 452.2c1.9.3.4.1.9.2-4.2-.8-5.2-1.1-6.1-1.3 4.1.9 4 .9 5.2 1.1zM339 403.9c.1.3.3.5.3.6 2.5-.2.9-.1 0 0-.1-.3-.2-.4-.3-.5-1.2-2.2.7 1.2 0-.1zM395.5 426.4c1-.9-.2.2 0 0-.9.9-1.4 1.2-1.3 1.1-1.1 1-1.5 1.3-.8.6 1.2-.9.9-.6 2.1-1.7zM398.7 423c-.3.3-1.9 1.8-3.3 3 1.1-1.1 3.3-3.1 1.8-1.7 3.4-3.2-.2.2.1-.1 1.3-1.2 1.3-1.2 1.9-1.8l-.2.2c-.4.5-.9 1-.3.4z"/><path fill-rule="evenodd" clip-rule="evenodd" fill="#492705" d="M404.5 417c-.2.3.9-.9-1.1 1.2l-4.4 4.4c-.7.6-.7.6-1.9 1.8 1-1 2.2-2.1 3.5-3.3 1.2-1.2 2.6-2.6 3.9-4.1z"/><path fill-rule="evenodd" clip-rule="evenodd" fill="#492705" d="M397.5 424c2-1.8 3.8-3.7 4.4-4.3-.5.5-2.6 2.7-4.4 4.3.2-.2-.5.5-1.3 1.2 1.4-1.3-1 .9-.2.1 1.1-1 1.7-1.6.7-.6 2.5-2.4 1.9-1.7 3.9-3.7l-1.5 1.5-1.6 1.5zM364.8 446.3c1-.4 1.7-.7 2.2-.9.4-.2.7-.3.9-.4.3-.2.3-.2.9-.4 1.3-.7.5-.2-.7.4-.6.3-1.3.7-1.9.9-.8.2-1.2.3-1.4.4zM405.2 416c.3-.3 0 .1-1.2 1.3.6-.6.9-1 1.2-1.3zM402.7 418.6c.8-.8 1.7-1.8 1.3-1.4-1.4 1.5-2.3 2.4-3.7 3.7l1.8-1.8-2.5 2.5-.1.1c.9-.7 1.1-1 3.2-3.1z"/><path fill-rule="evenodd" clip-rule="evenodd" fill="#492705" d="M407.5 413.5c-1.4 1.6-3 3.2-4.2 4.5-.6.6-1.2 1.1-1.5 1.5l-.6.6-1.9 1.9 3.1-3.1-.3.3c-.1 0 .1-.1.8-.9l-1.9 1.9c1.1-1.1-1 .9-2.4 2.3 2-1.9 1-1 3.7-3.7-.3.3-.5.5-.7.6-1.2 1.2-.5.5-2.4 2.5l3.6-3.6c1.8-1.8-2.8 2.9 1.3-1.3.2-.1-.3.5-.3.6-.4.4 1.3-1.3 1.8-1.9-.9 1-.1.1-1.1 1.2.5-.6.9-1 2.4-2.6.3-.5-.8.7.6-.8zM447.9 353.4c-1.2 2.2-.6 1.1-1.3 2.4-.4.7-.6 1.1-.8 1.5-2.9 5.2-.8 1.3-1.5 2.6 2.5-4.5 3.1-5.9.7-1.3-.4.7 1.1-2 1.2-2.3-.6 1.1-1.8 3.3-2.2 3.9.4-.7 1-1.8 1.7-3.1-.7 1.3 2-3.7 2.8-5.3-1.2 2.2-.8 1.6-.5.9.9-1.8 1.5-2.8 1.2-2.3.2-.4.4-.7.6-1.1V346 349.4c-.2.5-.4.8-.5 1-.1.2-.1.1.1-.1-.5 1-1.5 2.9-2 3.9 1.3-2.5-.4.8 2.1-4-.3.6-.8 1.6-.7 1.5-1.6 3.1.1-.2-.1.1-.3.6-.8 1.4-1.2 2.4.1-.5-.3.4.4-.8zM450 322.2V322.2zM320.5 448.6v-3.5V448.6zM427.2 387.7c.7-1 .5-.7 1.1-1.6-.6.9-.9 1.3-1 1.5-.4.6-.8 1.2-1.5 2.2 1.5-2.2.5-.8-.6.9.5-.7 2.2-3.2 2-3z"/><path fill-rule="evenodd" clip-rule="evenodd" fill="#492705" d="M426.1 389.3c-1.3 1.8.5-.7 2-2.9-.4.5-.5.7-.5.7-.7 1-1.2 1.7-1.5 2.2zM414 405.4c-.5.6-.5.6-.6.7-.4.4-.7.9-1.1 1.3 2.5-3.1-.1.1 3.8-4.7.3-.3-.8 1-1.6 2-.4.5-.4.5-.5.7zM365.7 445.4c-.2.1 1.8-.8 1.5-.7.8-.4 3.5-1.8 2.4-1.2 1.4-.7 1.6-.8 3-1.6-.1.1-1 .6.1 0 .9-.5 1.3-.8 1.5-.9 2.2-1.3.5-.2 3-1.8-.2.2-3.3 1.9-3.7 2.2-.9.5-2.1 1.2-2.2 1.3-.8.4-.8.4-2.3 1.2l-.8.4c-.4.1-.9.4-2.5 1.1zM449.5 317.2c.1-.2.3-.8.3-.8.3-.8.3-.8.9-2.5-.2.6-.9 2.4-1.2 3.3-.8 2.4.7-1.9 0 0z"/><path fill-rule="evenodd" clip-rule="evenodd" fill="#492705" d="M449.9 315.5V312.9 312.6v-.2 6.8c-.1-3.4-.1-1.7 0-3.7zM435.6 374.5c-.8 1.3-1 1.7-1 1.6-1.3 2.1-1.2 1.9-2.3 3.7-.3.5-1.2 1.9-2 3.1 1.5-2.2 1.8-2.9 2.4-3.7.5-.9 1.2-1.9 3.1-5-.4.6-.5.8-.5.8 1.3-2.1 1.9-3.2 2.2-3.6 3.1-5.3 3.8-6.6 6.4-11.2-.7 1.3.5-.8.5-.8 1.3-2.4-4.3 8 1.4-2.2.6-1.1-2.1 3.8-1.4 2.4 1.3-2.3 3.1-5.8 4.2-7.9.9-1.7-.2.4 1.1-2.2 0-.1.1-.1.1-.1s-.1.3-.1.1c-1.3 2.5-1.8 3.5-2 4-.2.4 0 0 .2-.3-.8 1.5-.6 1-1.7 3.1-.3.5 1-1.9-.1.1-2.8 5.2-1 1.9-1.5 2.9-.4.8-4.7 8.4-6.3 10.9.4-.7.4-.7-1.9 3.1.1-.2 1.6-2.6 1.3-2.2-.9 1.5-2.5 4-1.9 3.1-.3.5-1 1.6-1.9 3-2 3.2.8-1.2-1.8 2.9.3-.4.9-1.4 1-1.5 1-1.6-.2.3 1.4-2.2.9-1.5.3-.5-1.4 2.2.4-.7 2.6-4.4 2.5-4.1zM449.9 308.6c-.1 1.9 0-1.1 0 0v-2.8l3.7.7c-.1.3-.3.7-.5 1.4.2-.5.4-1 .5-1.4l-3.7-.7v2.8zM449.8 310.9v-1.6-.4c-.1 0 0 .4 0 2zM449.6 348.2v-2.6 2.6zM361.2 345.5c-.5-.2-2.3-.8-3.6-1.2-.4-.2-.7-.4-.8-.5-.3-.2-.4-.2-.3-.2.2.1.6.3 1.1.6.9.4 2.1.8 3.6 1.3zM321 409.9v0zM363.4 359.5c-.2-.3-.3-.6-.3-.7-.7-.4-.5-.3 0 0l.7 1.4c.1.3.2.4.1.2.8 1.5 1.1 2 1.2 2.4-.7-1.4-1.3-2.5-1.7-3.3zM321.1 418.3v0zM321.1 427.1v0zM359.3 404.6c.2 0 .7-.1.9-.1-3.3.3-3.3.3-2.8.2 2.3-.2 4.3-.4 6.9-.6.4-.8.8-1.7 1.3-2.6 1.1-2.3 2-4.1 3.1-6.4-.6 1.3-1 2.1-2.2 4.6.1-.2.2-.4 0-.1-.3.5-.9 1.8-2.2 4.5-1.2.1-2.9.3-5 .5z"/><path fill-rule="evenodd" clip-rule="evenodd" fill="#492705" d="M369.6 393.8c.3-.6.4-.8.4-.9 0 .1-.1.4-.4.9l-1.2 2.4c1.8-3.6.6-1.2 1.3-2.5-.8 1.6-1.1 2.2-2.3 4.7 0 .1.2-.5.2-.4-.1.3-.5 1-1.9 3.9-.5 1.1-.9 1.9-1.2 2.5-2 .2-2.4.2-6.7.5-8.9.8-4.9.4-1.5.2-3.3.3-2.9.3-4.3.4-9.6.8-2.3.2-.4 0 1.1-.1 3.2-.3 4.4-.4 3.4-.3 5.7-.5 8.4-.8 1.1-2.2 2.3-4.7 4.1-8.4.1-.3-.7 1.5-.4.9 1-2 1.6-3.4 2.1-4.4v-.3.3c-.4.8-.7 1.5-.8 1.7l.1-.2c.1-.3.4-.8.7-1.5v-3.3V386.5v-6-1.1-7-.6c-.5-1.1-.9-1.8-1.1-2.2-.2-.3-.2-.4-.2-.3.2.4.7 1.3 1.3 2.5v17c0-5 .1-12.3.1-14.6v18.4c-.2.3-.4.7-.7 1.2zM388.1 351.1c0 1.1.1 2.7.1 4.7v1c0-1.1-.1-2.6-.1-3.6 0-1.7-.1-2.4 0-.2 0-.7 0-1.9-.1-3.1-2.2-.7-4.3-1.5-3.2-1.1-3.2-1.1-1.5-.5-5.2-1.8 5 1.7 6.5 2.2 8.4 2.9.1.4.1.8.1 1.2zM394.9 429.2c-1.9 1.6-2.2 1.9-4.2 3.5.1-.1.5-.4 1.1-.9.6-.5 1.4-1.2 2.3-2-.8.7-.6.5.7-.6-1.8 1.5-.5.4-2.1 1.8 1.5-1.3 3.7-3.2 3.3-2.8 1.5-1.3-.8.8.9-.7-1 .9-2.7 2.4-3.3 2.9.9-.7 2.3-2 2.8-2.4-1.3 1.1-1.8 1.6-2 1.7-.6.5-1.1 1-2 1.8.5-.5 1.6-1.5 2.5-2.3zM431.3 385.4c-.4.6-1.6 2.4-1.5 2.2 2.2-3.3 1.8-2.7 1.9-2.9 2-3 .6-.9 1.1-1.6-.5.8-1.8 2.8-1.5 2.3zM386.9 432.5c1.5-1.2.5-.4 3.4-2.7-2.3 1.8-1.3 1.1-4.7 3.8 1.2-1 3.6-2.7 8.8-7.3 4.3-4.1.8-.5-3.6 3.2-1 .9-2.1 1.7-3 2.4-1 .8-1.9 1.5-2.8 2.2-.9.7-1.8 1.3-2.6 1.9l-1.2.9c-.4.3-.8.5-1.1.7-1.5.9-2.7 1.7-3.6 2.4-.9.5-1.6.9-2 1.2-1.1.6 1-.6 2.8-1.7 1.7-1.2 3.2-2.1 1.2-.8 1.1-.7 1.2-.8 3.4-2.3 2.2-1.6 1.6-1.1 4.2-3.1.6-.5-.5.4 2.8-2.2-.4.1-1.1.6-2 1.4z"/></g><g><path fill="#492705" d="M451.3 209.7c26.4 6.2 20.2-34.7 19.5-51-.9-19.6-1.9-34.4-7.8-48.8-3-7.3-8-16-18.9-28.5-18.6-21.2-52.6-59.9-99.7-58.5-8.8.3-23.3 2.1-40.7 11.3 2.3 7.3 6.1 17.9 11.7 30.2 4.7 10.2 6.8 15.5 8.8 17.3 13 11.5 31-1.7 68.4 13 29.2 11.5 34.6 18.9 46.6 46 10.1 22.8 10.1 44.5 12.1 69z"/><path fill="#492705" d="M460.9 110.5c-2.5-5.8-5.8-11.4-9.8-16.8-3.9-5.4-8.5-10.5-13.2-15.8-9.3-10.5-19.3-20.8-30.6-29.6-11.3-8.7-23.8-15.9-37.1-19.7-13.3-3.9-27.1-4.3-39.6-1.6-7.5 1.6-14.9 4.2-21.9 7.7-.4.2-.9.4-1.3.7l-.3.2h-.1s-.1 0-.1.1l.1.2.8 2.3 1 2.8c1.4 3.8 2.8 7.5 4.3 11.2 1.5 3.7 3.1 7.4 4.8 11.1 1.7 3.7 3.4 7.5 5.1 11.1.9 1.8 1.8 3.7 2.7 4.9.1.2.2.3.3.4l.3.3c.3.3.7.6 1 .8.7.5 1.5 1 2.2 1.4 3.1 1.6 6.9 2.1 10.8 2.2 4 .1 8.1 0 12.2 0 4.2 0 8.4.2 12.5.7 8.4.9 16.6 2.9 24.4 5.7 1.9.7 3.9 1.4 5.8 2.2 1.9.8 3.8 1.5 5.7 2.4 3.8 1.6 7.5 3.5 11.1 5.5 3.6 2.1 7.1 4.5 10.2 7.4 3.2 2.8 5.8 6.1 8.1 9.6-.2.1-3.5-4.2-.6.4.8 1.1 1.4 2.2 2 3.3l.9 1.5c.3.5.5 1 .7 1.4.5.9.9 1.8 1.3 2.5.4.8.7 1.5 1 2.2 1.3 2.7 1.9 4.6 2.4 5.8.9 2.5.7 2.6.5 2.7-.1 0-.5-.9-1.1-2.1-.6-1.3-1.4-2.9-2.1-4.4-1.5-3-2.7-5.3-1.6-2.9-1.8-3.5-4-7.6-6.7-11.2-2.6-3.7-5.8-6.7-8.4-8.8-.7-.5-1.2-1-1.8-1.4-.6-.4-1.1-.7-1.5-1-.9-.6-1.5-1-1.7-1.1-.4-.2.7.5 3.8 2.9.5.4 1.2 1 2 1.7s1.7 1.6 2.7 2.6c1.9 2.1 4.1 4.6 5.8 7.4 3.7 5.5 6.4 11.5 7.4 13.9 1.9 4.9-2.8-4.5-.9.4 1.1 2.4 2.8 6 4.3 9.6 1.6 3.6 2.8 7.3 3.6 9.8.4 1.3.3 1.6.2 1.5-.1-.1-.4-.7-.6-1.3-.5-1.2-1-2.4-.2.1 2.2 7.4 3.9 16.4 5 26.1 1.1 9.7 1.7 20.2 2.5 30.7-.2 0 0 5.3-1-5.2-.9-11.5-1.5-22.9-3.3-34.2-.9-5.6-2.1-11.1-3.8-16.5l-1.3-4-1.5-4-1.6-3.9-1.8-3.9c-2.4-5.2-4.9-10.4-7.8-15.2-.7-1.2-1.5-2.3-2.3-3.5-.8-1.1-1.7-2.2-2.5-3.3-1.8-2-3.7-4-5.9-5.7-4.3-3.5-9.2-6.2-14.4-8.6-1.3-.6-2.6-1.2-3.9-1.7-1.3-.6-2.6-1.1-4-1.7-2.7-1.1-5.3-2.1-8-3-5.4-1.9-10.9-3.3-16.5-4.2-5.6-.9-11.2-1.3-17-1.4h-8.7c-2.9 0-6 0-9.1-.4-1.6-.2-3.1-.5-4.7-1s-3.1-1.1-4.6-1.9c-.7-.4-1.4-.9-2.1-1.4-.3-.2-.6-.5-1-.8l-.5-.4c-.2-.1-.4-.4-.6-.6-1.4-1.6-2-2.9-2.8-4.3-1.4-2.7-2.6-5.4-3.8-8l-3.6-8c-2.4-5.4-4.6-10.8-6.7-16.3-1-2.8-2-5.5-3-8.3l-1.1-3.3-.7-2.1c-.1-.1 0-.1.1-.2l.2-.1.5-.2 1-.5 3.2-1.6c.7-.3 1.3-.6 2-1 5.4-2.6 11.1-4.7 16.9-6.2 5.8-1.5 11.8-2.5 17.8-2.9 6-.3 12.1 0 18 .9 11.9 1.8 23.4 6.1 33.7 12 10.4 5.9 19.8 13.2 28.5 21.2s16.6 16.7 24.2 25.5c3.9 4.4 7.6 9 10.9 14 3.4 4.9 6.3 10.2 8.5 15.8 2.2 5.6 3.8 11.4 4.8 17.3 1.1 5.9 1.6 11.7 2 17.5.2 2.9.4 5.8.5 8.7.2 2.9.2 5.8.4 8.6.4 5.7.8 11.6.9 17.4.1 5.9-.1 11.8-1.5 17.9-.7 3-1.8 6-3.6 8.9l-.7 1-.8 1c-.5.7-1.2 1.2-1.9 1.8-1.4 1.1-3 2-4.7 2.5-.4.1-.8.2-1.1.3-.4.1-.7.1-1.1.2-.3.1-.7.1-1 .2h-2.6c-.5 0-1-.1-1.4-.1-.9-.1-1.6-.2-2.2-.3-.6-.1-1-.2-1.4-.3-.6-.2-.8-.2-.6-.2.2 0 .7.1 1.6.2.4.1 1 .1 1.6.2.6 0 1.3.1 2 .1.7.1 1.6-.1 2.4-.1.4 0 .9-.1 1.3-.2.5-.1.9-.2 1.4-.3 1.9-.5 3.9-1.5 5.5-3 .4-.4.8-.7 1.2-1.2.3-.4.7-.9 1.1-1.3.6-.9 1.2-1.8 1.7-2.8-1.3 2.6-2.4 3.7-3.5 4.7-.3.2-.6.5-.9.7-.3.2-.7.5-1.1.7-.2.1-.4.3-.6.4-.2.1-.5.2-.8.4-.3.1-.5.3-.8.4-.3.1-.6.2-1 .3 0-.1.7-.3 2-1.1s3.1-2.1 4.7-4.5 2.9-5.6 3.7-9.5c.8-3.9 1.2-8.6 1.2-13.9-.1 5.3-.4 10.6-1.8 15.8-.8 2.6-1 2.5-.8 1.8.1-.3.2-.8.3-1.2.1-.4.1-.7 0-.8.7-2.5 1.1-5.2 1.3-7.1.1-1 .2-1.8.2-2.4v-.9h-.5c-.2 2.6-.5 6.5-1.6 10.3-1 3.8-2.9 7.2-4.9 8.9 1.9-1.7 3.1-4.1 3.8-5.8.4-.9.6-1.7.8-2.2.1-.5.2-.9.2-.9-.1 0-.3-.1-.4-.1 1.3-4.9 1.8-11.5 1.8-18s-.6-13.1-1-18.3h-.3c.3 5.3.9 11.8.9 18.3.1 6.5-.3 13-1.7 17.9.6-2.5.7-3.7.8-4.4 0-.6 0-.7-.2-.7 1-7.6.8-15.4.3-23.2-.2-3.9-.6-7.9-.7-11.8-.2-3.9-.4-7.9-.8-11.8.4 5.2.6 10.4.9 15.7-.6-5.3-.9-14.4-1.9-24.1-.5-4.8-1.2-9.8-2.3-14.4-.4-5-1.7-9.2-3.3-12.8z"/></g></svg>